<?xml version="1.0" encoding="utf-8"?>
<!-- Generator: Adobe Illustrator 27.5.0, SVG Export Plug-In . SVG Version: 6.00 Build 0)  -->
<svg version="1.1" xmlns="http://www.w3.org/2000/svg" xmlns:xlink="http://www.w3.org/1999/xlink" x="0px" y="0px"
	 viewBox="0 0 750 500" style="enable-background:new 0 0 750 500;" xml:space="preserve">
<g id="Background_Complete">
	<g>
		<g>
			<circle style="fill:none;stroke:#E0E0E0;stroke-miterlimit:10;" cx="632.51" cy="163.052" r="17.035"/>
			<path style="fill:none;stroke:#E0E0E0;stroke-miterlimit:10;" d="M644.719,151.178l-27.223,19.925
				c0.91,1.694,2.098,3.215,3.503,4.504l26.684-20.295C646.904,153.786,645.902,152.394,644.719,151.178z"/>
		</g>
		<g>
			
				<ellipse transform="matrix(0.231 -0.973 0.973 0.231 19.3556 450.8317)" style="fill:none;stroke:#EAEAEA;stroke-miterlimit:10;" cx="294.872" cy="213.172" rx="12.388" ry="12.388"/>
			<path style="fill:none;stroke:#EAEAEA;stroke-miterlimit:10;" d="M303.75,204.537l-19.796,14.489
				c0.662,1.232,1.526,2.338,2.547,3.275l19.404-14.758C305.339,206.434,304.61,205.421,303.75,204.537z"/>
		</g>
		<g>
			<path style="fill:#FFFFFF;stroke:#F5F5F5;stroke-miterlimit:10;" d="M250.704,110.226c0,7.785-6.311,14.095-14.095,14.095
				c-7.785,0-14.095-6.311-14.095-14.095c0-7.785,6.311-14.095,14.095-14.095C244.393,96.131,250.704,102.441,250.704,110.226z"/>
			<path style="fill:none;stroke:#F5F5F5;stroke-miterlimit:10;" d="M246.711,100.401l-22.525,16.487
				c0.753,1.401,1.736,2.66,2.899,3.727l22.079-16.793C248.518,102.559,247.69,101.407,246.711,100.401z"/>
		</g>
		<g>
			<path style="fill:none;stroke:#E0E0E0;stroke-miterlimit:10;" d="M121.507,288.662c-8.734,3.497-18.649-0.749-22.146-9.483
				c-3.497-8.734,0.749-18.649,9.483-22.146c8.734-3.497,18.649,0.749,22.146,9.483C134.486,275.25,130.241,285.166,121.507,288.662
				z"/>
			<path style="fill:none;stroke:#E0E0E0;stroke-miterlimit:10;" d="M130.736,279.769l-28.616-17.867
				c-1.234,1.474-2.205,3.143-2.879,4.926L128,284.057C129.127,282.767,130.047,281.319,130.736,279.769z"/>
		</g>
		<path style="fill:#EAEAEA;" d="M493.155,222.021h-7.129v-7.129c0-1.102-0.894-1.996-1.996-1.996s-1.996,0.894-1.996,1.996v7.129
			h-7.129c-1.102,0-1.996,0.894-1.996,1.996v0c0,1.102,0.894,1.996,1.996,1.996h7.129v7.129c0,1.102,0.894,1.996,1.996,1.996
			s1.996-0.894,1.996-1.996v-7.129h7.129c1.102,0,1.996-0.894,1.996-1.996v0C495.151,222.915,494.258,222.021,493.155,222.021z"/>
		<path style="fill:#E0E0E0;" d="M633.585,255.635h-6.554v-6.554c0-1.013-0.822-1.835-1.835-1.835c-1.013,0-1.835,0.822-1.835,1.835
			v6.554h-6.554c-1.013,0-1.835,0.821-1.835,1.835v0c0,1.013,0.821,1.835,1.835,1.835h6.554v6.554c0,1.013,0.822,1.835,1.835,1.835
			c1.013,0,1.835-0.822,1.835-1.835v-6.554h6.554c1.013,0,1.835-0.822,1.835-1.835v0
			C635.42,256.456,634.598,255.635,633.585,255.635z"/>
		<path style="fill:#E6E6E6;" d="M64.224,185.536h-7.129v-7.129c0-1.102-0.894-1.996-1.996-1.996c-1.102,0-1.996,0.894-1.996,1.996
			v7.129h-7.129c-1.102,0-1.996,0.894-1.996,1.996v0c0,1.102,0.894,1.996,1.996,1.996h7.129v7.129c0,1.102,0.894,1.996,1.996,1.996
			c1.102,0,1.996-0.894,1.996-1.996v-7.129h7.129c1.102,0,1.996-0.894,1.996-1.996v0C66.219,186.429,65.326,185.536,64.224,185.536z
			"/>
		<path style="fill:#E6E6E6;" d="M683.404,112.015h-7.129v-7.129c0-1.102-0.894-1.996-1.996-1.996s-1.996,0.894-1.996,1.996v7.129
			h-7.129c-1.102,0-1.996,0.894-1.996,1.996v0c0,1.102,0.894,1.996,1.996,1.996h7.129v7.129c0,1.102,0.894,1.996,1.996,1.996
			s1.996-0.894,1.996-1.996v-7.129h7.129c1.102,0,1.996-0.894,1.996-1.996v0C685.4,112.909,684.506,112.015,683.404,112.015z"/>
		<path style="fill:#EAEAEA;" d="M353.401,66.214h-5.895v-5.896c0-0.911-0.739-1.65-1.651-1.65c-0.912,0-1.651,0.739-1.651,1.65
			v5.896h-5.895c-0.912,0-1.651,0.739-1.651,1.651l0,0c0,0.911,0.739,1.65,1.651,1.65h5.895v5.896c0,0.911,0.739,1.65,1.651,1.65
			c0.912,0,1.651-0.739,1.651-1.65v-5.896h5.895c0.912,0,1.651-0.739,1.651-1.65l0,0C355.052,66.953,354.313,66.214,353.401,66.214z
			"/>
	</g>
	<g>
		<g>
			<rect x="80.712" y="80.376" style="fill:#FFFFFF;stroke:#E0E0E0;stroke-miterlimit:10;" width="121.894" height="157.956"/>
			<g>
				<rect x="88.447" y="88.468" style="fill:none;stroke:#E0E0E0;stroke-miterlimit:10;" width="106.424" height="141.771"/>
				<line style="fill:none;stroke:#E0E0E0;stroke-miterlimit:10;" x1="80.712" y1="80.376" x2="88.447" y2="88.468"/>
				<line style="fill:none;stroke:#E0E0E0;stroke-miterlimit:10;" x1="80.712" y1="238.332" x2="88.447" y2="230.24"/>
				<line style="fill:none;stroke:#E0E0E0;stroke-miterlimit:10;" x1="194.871" y1="230.24" x2="202.606" y2="238.332"/>
				<line style="fill:none;stroke:#E0E0E0;stroke-miterlimit:10;" x1="202.606" y1="80.376" x2="194.871" y2="88.468"/>
			</g>
		</g>
		<g>
			<rect x="124.31" y="118.127" style="fill:none;stroke:#E0E0E0;stroke-miterlimit:10;" width="62.332" height="104.728"/>
			<g>
				<path style="fill:#F0F0F0;" d="M118.645,130.193c0,0-1.885-13.258,0-16.871c1.885-3.613,7.9-9.425,7.9-9.425l3.41-7.54
					l4.563,2.199c0,0-3.215,7.069-1.925,12.409c0,0-0.91-6.283,3.017-9.739l4.869,2.356c0,0-2.421,2.985-1.289,8.639
					c0,0,0.504-5.184,3.174-7.697l3.95,2.199c0,0-5.992,5.184-3.636,8.797c2.356,3.613,6.597,6.205,2.592,10.053
					c-4.112,3.951-7.172-1.335-10.752,0.078c-3.58,1.414-0.95,10.289-0.95,10.289l-9.896,10.289
					C123.672,146.23,117.545,134.341,118.645,130.193z"/>
				<path style="fill:#EAEAEA;" d="M115.975,150.55c0,0-6.912-12.723-5.969-25.133c0.942-12.409,11.32-31.887,11.32-31.887
					l5.914,2.827l-2.783,6.44l4.869-1.1v6.755c0,0-10.927,2.042-9.705,15.551c1.222,13.509,8.553,23.091,8.553,23.091
					L115.975,150.55z"/>
				<path style="fill:#E0E0E0;" d="M100.424,160.289c0,0-4.712-5.969-1.885-18.221c2.827-12.252,14.738-14.832,18.979-8.621
					c4.241,6.211,3.797,6.736,8.51,10.506C130.74,147.723,101.703,162.675,100.424,160.289z"/>
				<path style="fill:#E0E0E0;" d="M150.846,138.141c0,0,4.555,0.314,8.168,1.571l-0.471,5.341l-3.613-0.393l0.471,2.166
					l4.634,1.368l-0.785,4.084l-4.32-0.628v1.728l3.77,1.021l-0.785,4.241c0,0-3.063-1.178-3.063-0.942s0.255,4.084-3.171,7.854
					c-3.426,3.77-19.92-5.419-19.056-15.472C133.489,140.026,147.626,137.355,150.846,138.141z"/>
				<path style="fill:#F5F5F5;" d="M97.701,172.856c0,0-0.838-12.776,6.074-20.211c6.912-7.435,12.252-8.482,15.708-9.739
					c3.456-1.257,5.342-1.676,8.692-5.131c3.35-3.456,4.921-9.53,26.18-2.304v4.712c0,0-12.881-1.676-13.509,7.645
					c-0.628,9.32,7.435,9.844,11.833,15.708c4.398,5.864,6.905,17.279-0.998,32.463c-7.903,15.185-16.28,18.64-19.108,18.954
					c-2.827,0.314-13.404-2.199-23.248-14.975C99.481,187.202,97.91,180.5,97.701,172.856z"/>
				<g>
					<path style="fill:#E0E0E0;" d="M120.935,166.172c-1.758-2.046-3.915-4.025-5.755-5.712c-1.393-1.277-2.595-2.381-3.371-3.263
						c-2.917-3.319-0.899-10.898-0.881-10.967l-0.79,0.595c-0.074,0.291-1.775,7.18,1.31,10.69c0.591,0.672,1.415,1.461,2.377,2.352
						c0.126,0.452,0.923,3.542-0.018,6.741c-1.012,3.441-5.627,6.961-5.674,6.996l0.29,0.385c0.175-0.132,3.894-2.975,5.415-6.158
						c2.033,3.62,0.471,6.551,0.454,6.581l0.421,0.235c0.076-0.137,1.816-3.362-0.635-7.367c0.069-0.179,0.137-0.357,0.19-0.537
						c0.765-2.602,0.444-5.072,0.192-6.291c0.13,0.119,0.26,0.239,0.394,0.362c3.86,3.54,9.146,8.389,8.995,12.239
						c-0.094,2.387-0.726,5.173-1.521,7.696c-2.088-0.582-3.408,0.273-5.498,1.805c-2.032,1.489-4.638,1.06-4.664,1.057
						l-0.083,0.475c0.042,0.008,0.435,0.073,1.024,0.073c1.016,0,2.616-0.194,4.008-1.215c2.017-1.478,3.196-2.246,5.066-1.735
						c-0.935,2.863-2.056,5.325-2.792,6.376l0.395,0.277c1.481-2.117,4.333-9.339,4.546-14.79c0.079-2.017-1.201-4.246-2.991-6.42
						c1.967,0.038,9.348,0.666,12.743,7.719l0.435-0.209C130.702,166.235,122.022,166.15,120.935,166.172z"/>
					<path style="fill:#E0E0E0;" d="M149.779,176.868L149.779,176.868c0.191-0.373,0.383-0.756,0.578-1.158
						c4.738-9.791-4.499-18.694-4.596-18.778l-2.196-1.143c0.094,0.082,10.934,10.253,6.358,19.711
						c-2.753,5.691-5.138,8.26-7.242,10.527c-1.505,1.622-2.805,3.022-3.985,5.252c-0.38,0.717-0.698,1.394-0.972,2.041
						c-0.509,0.154-2.94,0.855-5.828,1.13c-3.398,0.324-5.15,4.065-5.223,4.224l0.438,0.201c0.017-0.037,1.711-3.648,4.83-3.945
						c2.473-0.236,4.624-0.781,5.549-1.041c-0.84,2.129-1.186,3.901-1.498,5.516c-0.26,1.342-0.505,2.609-1,3.918l0.451,0.17
						c0.509-1.348,0.759-2.634,1.022-3.997c0.426-2.199,0.909-4.692,2.657-7.992c1.151-2.174,2.431-3.553,3.912-5.15
						c1.726-1.86,3.639-3.921,5.788-7.709c-0.073,1.44,0.51,2.88,1.499,4.693c1.34,2.456,0.469,6.677,0.297,7.191l0.457,0.153
						c0.189-0.567,1.111-4.931-0.331-7.575C149.354,180.56,148.823,178.895,149.779,176.868z"/>
				</g>
			</g>
		</g>
	</g>
	<g>
		<g>
			<g>
				
					<rect x="444.867" y="68.978" transform="matrix(6.123234e-17 -1 1 6.123234e-17 370.138 630.178)" style="fill:#FFFFFF;stroke:#E0E0E0;stroke-miterlimit:10;" width="110.582" height="122.083"/>
				<g>
					
						<rect x="451.885" y="75.233" transform="matrix(6.123234e-17 -1 1 6.123234e-17 370.138 630.178)" style="fill:none;stroke:#E0E0E0;stroke-miterlimit:10;" width="96.547" height="109.574"/>
					<line style="fill:none;stroke:#E0E0E0;stroke-miterlimit:10;" x1="439.116" y1="185.311" x2="445.371" y2="178.293"/>
					<line style="fill:none;stroke:#E0E0E0;stroke-miterlimit:10;" x1="561.2" y1="185.311" x2="554.945" y2="178.293"/>
					<line style="fill:none;stroke:#E0E0E0;stroke-miterlimit:10;" x1="554.945" y1="81.747" x2="561.2" y2="74.729"/>
					<line style="fill:none;stroke:#E0E0E0;stroke-miterlimit:10;" x1="439.116" y1="74.729" x2="445.371" y2="81.747"/>
				</g>
			</g>
		</g>
		<g>
			<g>
				<path style="fill:#E0E0E0;" d="M492.919,124.519c0,0-0.348-5.813-2.089-11.348c-1.741-5.536-3.249-9.503-9.168-9.226
					c-5.919,0.277-11.837,1.938-18.22,13.655s-10.097,27.126-10.329,33.492c-0.232,6.366-1.161,16.423,9.4,15.039
					c10.561-1.384,8.936-6.182,21.122-6.089c12.186,0.092,15.203-7.012,13.81-11.902
					C496.052,143.249,491.758,130.701,492.919,124.519z"/>
				<path style="fill:#E0E0E0;" d="M505.453,136.698c0,0,0.928-10.057,1.277-14.855c0.348-4.798,2.205-7.658,2.901-11.441
					c0.696-3.783,4.062-6.762,9.981-6.472c5.919,0.29,15.435,7.302,19.729,18.928c4.294,11.625,7.66,21.867,7.892,28.325
					c0.232,6.458,0.696,11.81-7.427,14.209c-8.124,2.399-10.561-5.628-16.944-5.167c-6.383,0.461-18.22,1.015-21.006-5.72
					C499.07,147.77,504.985,141.871,505.453,136.698z"/>
			</g>
			<g>
				<path style="fill:#F0F0F0;" d="M535.859,150.568c1.199,1.415,4.023,1.322,6.731,1.138c0,0-4.329-0.05-5.919-1.046
					c-1.59-0.996-0.735-2.153-3.172-2.368c-1.924-0.17-4.3-0.82-5.389-1.661c-0.332-1.498-0.333-3.19-0.085-4.352
					c0.045-0.212,0.077-0.399,0.101-0.574c0.304-0.018,0.716-0.093,1.272-0.056c1.393,0.092,3.095-0.307,3.907,1.599
					c0.733,1.72,2.098,1.461,4.118,0.627c-0.865,0.313-2.336,0.654-3.074-0.288c-1.083-1.384-0.812-2.491-2.94-2.768
					c-1.723-0.224-2.862-0.383-3.397-0.739c-0.182-0.543-0.483-1.085-0.742-2.136c-0.522-2.122-3.192-2.768-3.772-4.752
					c-0.197-0.674-0.396-1.206-0.677-1.628c0.933-0.76,2.671-2.263,3.411-3.487c2.196-1.856,4.163-2.034,6.26-0.451
					c2.282,1.722,4.99,0.646,4.99,0.646c-3.83,0.461-4.487-2.061-7.35-2.706c-1.528-0.345-2.647,0.283-3.36,0.943
					c0.154-1.299-0.317-2.618-0.934-3.711c-0.851-1.507-0.193-1.63,1.393-3.321c1.586-1.692,0.735-3.383,0.735-3.383
					c-0.116,2.553-2.05,3.506-3.211,4.828c-1.161,1.323,0.58,1.876,0.89,3.937c0.309,2.061-0.464,3.045-2.36,4.213
					c-0.977,0.602-1.479,1.13-1.738,1.501c-0.491-0.188-1.115-0.309-1.937-0.378c-1.598-0.135-2.697-1.489-3.486-2.708
					c0.457-0.844,1.349-2.618,1.435-3.735c0.035-0.457,0.005-0.991-0.081-1.536c0.274-0.55,0.66-1.304,0.971-1.816
					c0.542-0.892,1.702-0.4,3.056-1.446c1.354-1.046,1.006-2.153,1.006-2.153c-0.774,2.091-2.012,2.368-3.907,2.706
					c-1.029,0.184-1.463,0.566-1.647,0.878c-0.241-0.551-0.545-1.021-0.906-1.309c-1.044-0.83-2.05-0.738-1.586-1.814
					c0.464-1.076,0.232-2.43,0.309-4.306c0.077-1.876,1.75-3.014,1.75-3.014c-2.892,1.323-2.408,3.106-2.485,5.105
					c-0.077,1.999-0.735,1.999-0.542,2.952c0.193,0.953,1.199,0.062,2.592,2.614c1.049,1.922-0.052,4.559-0.66,5.744
					c-0.224-0.364-0.413-0.646-0.578-0.777c-0.754-0.6-2.843-0.784-6.673-1.707c-3.83-0.923-4.874-4.521-5.164-7.888
					c-0.29-3.368-0.174-18.683-0.232-20.713c-0.058-2.03-4.99-1.615-5.944-0.923c-0.954,0.692-0.207,7.335-0.033,13.609
					c0.174,6.274-0.406,10.287-0.406,10.287c-0.664,2.595-2.231,4.852-6.248,5.736c-0.423-0.509-0.933-0.988-1.531-1.43
					c0.234-0.725,0.376-1.952-0.576-3.291c-1.509-2.122-2.514-1.599-2.437-3.629c0.077-2.03,0-3.844-2.398-5.628
					c-0.016-0.012,1.948,2.171,1.818,4.398c-0.155,2.645-0.116,2.737,1.083,3.814c1.071,0.961,1.768,2.436,1.438,3.639
					c-1.515-0.869-3.453-1.552-5.848-1.979c-4.487-0.8-5.725-5.228-5.261-3.26c0.013,0.054,0.026,0.107,0.04,0.16
					c0.504,1.883,1.957,3.208,5.569,3.777c2.805,0.441,5.432,2.671,6.551,3.737c-3.821,0.798-5.808,2.016-9.085,2.998
					c-0.388,0.117-0.723,0.247-1.018,0.389c-0.403-0.389-1.116-1.043-2.097-1.804c-0.209-0.162-0.426-0.316-0.652-0.46
					c0.129-0.371,0.296-0.953,0.42-1.754c0.232-1.507-1.277-2.553-2.766-3.998c-1.49-1.446-1.141-3.537-1.141-3.537
					c-0.696,1.107-0.89,2.952,1.547,5.228c1.769,1.651,1.174,2.881,0.715,3.432c-1.297-0.513-2.924-0.704-5.202-0.326
					c-3.52,0.584-4.333,2.307-4.333,2.307c3.056-1.876,1.857-1.23,6.151-1.63c3.47-0.323,5.499,2.345,6.151,3.382
					c-0.686,0.692-1.004,1.529-1.503,2.439c-0.746-0.432-2.526-1.3-4.764-1.3c-2.979,0-3.598,0.307-4.623,1.138
					c-1.025,0.83-2.689,0.277-3.888,0.369c-1.199,0.092-2.824,0.677-3.443,1.661c0,0,2.979-1.661,4.642-1.138
					c1.663,0.523,2.824,0.4,3.791-0.369c0.936-0.744,4.732-1.113,7.01,1.399c-0.035,0.036-0.068,0.072-0.105,0.108
					c-0.364,0.362-0.653,0.721-0.894,1.082c-0.844,0.295-2.14,0.83-3.264,1.655c-1.509,1.107-1.934,2.03-3.404,2.337
					c-1.47,0.308-2.824,0.584-4.333,1.784s-3.714,2.46-3.714,2.46s1.315-0.246,3.868-1.845c2.553-1.599,4.681-1.599,4.681-1.599
					c-0.58,1.876-2.017,4.438-4.797,5.351c-2.78,0.914-3.946,3.321-3.946,3.321s1.857-1.938,5.068-3.321
					c3.211-1.384,4.449-3.814,5.571-5.997c0.7-1.362,2.453-2.401,3.674-2.99c-0.601,1.606-0.441,3.367-0.598,5.743
					c-0.177,2.672-0.22,3.977-0.719,5.08c-1.005,0.91-2.243,2.07-4.368,2.009c-2.128-0.062-2.863,0.738-4.371,2.153
					c-1.509,1.415-5.377,1.261-5.377,1.261c3.288,0.308,5.532-0.246,6.963-1.63c1.431-1.384,2.321-1.292,4.217-1.138
					c0.613,0.05,1.128-0.095,1.546-0.312c-0.335,0.817-0.47,1.633-1.082,2.911c-0.928,1.938-2.437,2.583-4.99,3.506
					c-2.553,0.923-2.321,2.076-2.321,2.076c0.58-1.615,2.205-1.43,4.004-2.261c1.558-0.719,3.244-1.473,3.932-2.621
					c0.239,0.366,0.613,1.103,0.149,1.606c-0.638,0.692-1.412,0.984-1.257,2.153c0.155,1.169,0.271,3.414-1.296,4.475
					c-1.567,1.061-2.321,1.661-2.321,1.661s2.437-0.646,3.424-2.184c0.986-1.538,0.793-2.66,0.928-3.937
					c0.135-1.276,0.251-0.984,1.103-1.814c0.85-0.829,0.022-2.813-0.337-2.954c0.511-1.309,1.639-2.572,2.581-4.735
					c0.179-0.411,0.304-0.711,0.395-0.958c0.631,0.632,1.986,2.161,1.926,3.603c-0.077,1.876-2.824,4.029,3.443,7.012
					c0,0-3.095-1.999-3.133-3.445c-0.039-1.445,1.044-3.168,0.542-5.197c-0.392-1.583-1.885-2.844-2.526-3.324
					c0.039-0.722,0.075-1.909,0.456-4.703c0.63-4.612,1.434-5.346,3.114-7.031c0.089,1.071,0.378,2.822,1.315,3.709
					c1.625,1.538,3.133,2.891,2.863,4.029c-0.271,1.138-3.404,2.491-3.327,4.582c0.077,2.091,1.044,2.522,2.321,3.875
					c1.277,1.353,1.663,1.826,1.663,3.127c0,0,0.232-1.989-1.663-4.019s-2.089-2.614-0.58-4.213
					c1.509-1.599,3.134-1.753,2.631-4.306c0,0,3.017,0.953,3.133,6.489c0.116,5.536,1.896,5.075,1.896,5.075
					s-1.431,0.184-1.315-2.891c0.116-3.075,0.851-5.32-1.934-8.273c-2.785-2.952-4.565-3.629-5.145-6.274
					c-0.245-1.115-0.337-1.927-0.363-2.496c0.069-0.079,0.138-0.158,0.209-0.242c1.76-2.071,3.69-2.681,5.637-2.954
					c0.456,0.387,1.003,1.062,1.036,2.093c0.058,1.784,0.812,1.968,0.696,3.076c-0.112,1.071-2.442,2.359-1.754,4.071
					c-0.09-0.311-0.117-1.002,0.999-1.718c1.509-0.969,2.36-1.907,1.934-2.753c0,0,1.141,0.215,1.083,1.507
					c-0.058,1.292-0.348,1.43,0.928,2.168c1.277,0.738,1.807,0.83,1.774,1.845c0,0,0.77-0.8-0.865-1.922
					c-1.309-0.899-1.373-0.173-1.141-1.571c0.232-1.397,0.464-1.782-1.218-2.766c-1.683-0.984-1.672-1.972-1.567-3.106
					c0.044-0.478-0.043-0.842-0.157-1.11c0.677-0.06,1.351-0.12,2.014-0.227c3.133-0.507,6.325-0.369,7.892-1.891
					c1.567-1.522,4.758-1.615,6.615-0.784c1.857,0.83,3.772,1.891,6.325,2.041c2.553,0.15,4.236,0.312,4.874,2.203
					c0.215,0.638,0.874,1.255,1.685,1.819c-1.096-0.172-2.358-0.155-2.71,0.718c-0.658,1.63-1.779,0.83-2.128,1.845
					c-0.348,1.015,0.658,0.8-0.425,2.245c-1.083,1.445-2.012,1.538-1.006,2.922c0,0-0.58-0.892,0.464-1.538
					c1.045-0.646,1.857-1.05,1.78-2.37c-0.077-1.32,0.542-1.351,1.78-1.905s0.812-1.415,1.702-1.261
					c0.523,0.09,2.167,0.595,3.434,0.995c0.667,0.342,1.212,0.622,1.46,0.819c0.589,0.468,1.26,1.339,2.423,2.324
					c-0.138,0.497-0.523,1.253-1.591,2.012c-1.305,0.927-2.604,1.776-2.793,2.784c-0.924-0.111-3.574-0.262-3.861,1.614
					c-0.348,2.276,0.503,2.799-1.161,3.598c0,0,1.547-0.123,1.779-1.876s0.116-2.368,1.393-2.522
					c0.68-0.082,1.425-0.015,1.973,0.065c0.06,0.129,0.132,0.261,0.232,0.397c1.199,1.63,2.79,3.168,1.859,5.351
					c-0.931,2.184-3.097,4.244,0.23,6.212c0,0-1.702-1.722-0.89-3.199c0.812-1.476,2.05-2.184,1.973-4.213s-0.774-3.906-1.702-4.951
					c-0.261-0.294-0.248-0.547-0.064-0.785c1.181-0.773,2.115,0.293,2.153,1.492s1.818,1.076,1.818,1.076
					c-1.702-0.215-1.199-0.923-1.431-2.318c-0.147-0.882-0.988-0.976-1.588-0.941c0.66-0.368,1.488-0.764,2.091-1.292
					c0.551-0.482,0.857-0.988,1.028-1.422c0.19,0.125,0.387,0.251,0.597,0.376c1.976,1.178,2.456,3.903,2.518,6.487
					c-0.979,0.537-3.734,2.186-3.989,3.878c-0.31,2.061,0.503,2.86,0.774,4.952c0.271,2.091-0.193,1.507,0,3.045
					c0.193,1.538,1.238,1.415,2.63,2.184c1.393,0.769,2.244,2.307,2.244,2.307s-0.348-1.999-2.398-3.045
					c-2.05-1.046-1.702-0.615-1.509-2.03c0.193-1.415-0.38-3.475-0.654-4.736c-0.274-1.261-0.661-1.814,0.615-2.952
					c0.842-0.75,1.748-1.311,2.269-1.608c-0.002,0.064-0.004,0.13-0.006,0.193c-0.116,3.045,0.812,4.751,3.307,5.628
					c2.495,0.876,3.424,2.122,4.352,5.259c0.928,3.137,5.222,2.583,5.222,2.583c-4.12,0.277-4.352-1.707-4.526-3.644
					c-0.174-1.938-3.54-4.244-5.339-5.397c-0.58-0.372-1.015-1.043-1.323-1.852c0.717,0.519,1.848,1.086,3.354,1.053
					C534.544,148.754,534.659,149.154,535.859,150.568z"/>
				<path style="fill:#F0F0F0;" d="M537.424,143.875c0.406-0.147,0.679-0.288,0.679-0.288
					C537.868,143.689,537.643,143.785,537.424,143.875z"/>
				<path style="fill:#F0F0F0;" d="M484.26,136.525c0.032,0.11,0.071,0.173,0.071,0.173
					C484.301,136.639,484.284,136.583,484.26,136.525z"/>
			</g>
		</g>
	</g>
</g>
<g id="Background_Simple" style="display:none;">
	<g style="display:inline;">
		<path style="fill:#E0E0E0;" d="M643.417,431.64c0,0,50.939-32.652,68.854-92.839c17.914-60.187,2.331-168.05-95.668-187.433
			c-107.596-21.282-137.106,70.374-137.106,70.374s6.381-32.538-27.52-29.924c0,0,31.348-78.55-55.432-116.737
			c-92.993-40.92-151.496,31.743-168.95,107.601c0,0-21.095-48.774-81.55-36.787c-46.788,9.277-76.621,59.641-54.837,119.65
			c0,0-33.666-5.507-54.629,30.86c-26.063,45.215,5.451,119.985,43.055,134.831C89.834,435.263,643.417,431.64,643.417,431.64z"/>
	</g>
</g>
<g id="Plants">
	<g>
		<g>
			<g>
				<path style="fill:#D880A6;" d="M637.648,264.794c-0.571-16.221,21.281-39.336,40.323-32.171
					c23.544,8.859,24.977,38.44,12.659,53.095c-9.502,11.304-23.892,10.332-14.455,37.368s-3.264,32.694-25.98,45.317
					c-22.716,12.623-3.886,19.999-10.843,44.621c-5.513,19.511-28.789,19.231-38.215,18.274l-35.574-41.067
					c-0.378-2.007-0.618-4.039-0.686-6.086c-0.759-22.649,20.887-32.324,35.369-42.573c15.664-11.087-8.828-26.124,2.412-50.48
					C613.899,266.736,638.219,281.016,637.648,264.794z"/>
				<path style="opacity:0.6;fill:#FFFFFF;" d="M637.648,264.794c-0.571-16.221,21.281-39.336,40.323-32.171
					c23.544,8.859,24.977,38.44,12.659,53.095c-9.502,11.304-23.892,10.332-14.455,37.368s-3.264,32.694-25.98,45.317
					c-22.716,12.623-3.886,19.999-10.843,44.621c-5.513,19.511-28.789,19.231-38.215,18.274l-35.574-41.067
					c-0.378-2.007-0.618-4.039-0.686-6.086c-0.759-22.649,20.887-32.324,35.369-42.573c15.664-11.087-8.828-26.124,2.412-50.48
					C613.899,266.736,638.219,281.016,637.648,264.794z"/>
			</g>
			<g>
				<g>
					<path style="fill:#4D5A64;" d="M594.968,423.499c2.194-4.814,4.379-9.632,6.562-14.451
						c5.399-11.915,10.779-23.838,16.139-35.771c6.837-15.221,13.643-30.457,20.393-45.717c6.516-14.731,12.99-29.48,19.324-44.29
						c4.456-10.419,8.952-20.848,12.927-31.463c0.31-0.827,0.614-1.655,0.91-2.487c0.162-0.455-0.562-0.651-0.723-0.199
						c-3.538,9.923-7.746,19.625-11.863,29.316c-6.169,14.519-12.496,28.972-18.864,43.404c-6.76,15.32-13.58,30.613-20.433,45.892
						c-5.62,12.53-11.264,25.049-16.927,37.559c-1.812,4.003-3.627,8.005-5.444,12.005c-0.838,1.844-1.834,3.683-2.539,5.583
						c-0.03,0.082-0.073,0.161-0.11,0.241C594.122,423.556,594.768,423.938,594.968,423.499L594.968,423.499z"/>
				</g>
			</g>
			<g>
				<g>
					<g>
						<path style="fill:#4D5A64;" d="M643.262,314.772c-6.502-8.279-13.003-16.558-19.505-24.836c-0.93-1.184-1.86-2.368-2.79-3.553
							c-0.298-0.379-0.825,0.155-0.53,0.53c6.502,8.279,13.003,16.558,19.505,24.836c0.93,1.184,1.86,2.368,2.79,3.553
							C643.029,315.682,643.557,315.148,643.262,314.772L643.262,314.772z"/>
					</g>
				</g>
				<g>
					<g>
						<path style="fill:#4D5A64;" d="M608.044,394.066c-6.83-9.746-13.661-19.491-20.491-29.237
							c-0.97-1.384-1.939-2.767-2.909-4.151c-0.275-0.392-0.925-0.018-0.648,0.379c6.83,9.746,13.661,19.491,20.491,29.237
							c0.97,1.384,1.94,2.767,2.909,4.151C607.672,394.836,608.322,394.462,608.044,394.066L608.044,394.066z"/>
					</g>
				</g>
			</g>
			<g>
				<g>
					<path style="fill:#4D5A64;" d="M674.179,339.273c-5.447,1.588-10.895,3.177-16.342,4.765
						c-8.64,2.519-17.279,5.038-25.919,7.558c-1.996,0.582-3.992,1.164-5.989,1.746c-0.462,0.135-0.266,0.859,0.199,0.723
						c5.448-1.588,10.895-3.177,16.342-4.765c8.64-2.519,17.279-5.038,25.919-7.558c1.996-0.582,3.992-1.164,5.988-1.746
						C674.841,339.861,674.644,339.137,674.179,339.273L674.179,339.273z"/>
				</g>
			</g>
		</g>
		<g>
			<g>
				<path style="fill:#D880A6;" d="M157.378,431.236H55.234c-7.38-7.437-8.961-15.577-3.636-22.231
					c12.183-15.224,30.534,9.363,37.918-3.2c4.339-7.382-15.258-13.107-37.468-21.576c-15.774-6.015-13.619-24.145,0-25.507
					c13.619-1.362,19.482-0.423,10.63-10.637c-8.852-10.214-34.977-30.406-20.232-40.998c18.234-13.097,31.646,18.912,45.264,31.169
					c13.619,12.257,0.658-21.179,20.405-14.37c19.747,6.81-3.405,52.432,10.214,57.88c13.619,5.448,31.323-43.58,53.113-2.724
					C182.367,399.523,171.216,417.95,157.378,431.236z"/>
				<path style="opacity:0.7;fill:#FFFFFF;" d="M157.378,431.236H55.234c-7.38-7.437-8.961-15.577-3.636-22.231
					c12.183-15.224,30.534,9.363,37.918-3.2c4.339-7.382-15.258-13.107-37.468-21.576c-15.774-6.015-13.619-24.145,0-25.507
					c13.619-1.362,19.482-0.423,10.63-10.637c-8.852-10.214-34.977-30.406-20.232-40.998c18.234-13.097,31.646,18.912,45.264,31.169
					c13.619,12.257,0.658-21.179,20.405-14.37c19.747,6.81-3.405,52.432,10.214,57.88c13.619,5.448,31.323-43.58,53.113-2.724
					C182.367,399.523,171.216,417.95,157.378,431.236z"/>
			</g>
			<g>
				<path style="fill:none;stroke:#4D5A64;stroke-miterlimit:10;" d="M133.871,429.673c0,0-41.101-82.636-78.772-111.69"/>
				<path style="fill:none;stroke:#4D5A64;stroke-miterlimit:10;" d="M109.383,385.978c0,0-15.323-12.412-59.496-17.376"/>
			</g>
		</g>
		<g>
			<g>
				<path style="fill:#D880A6;" d="M585.017,431.64h106.674c7.707-7.766,9.358-16.268,3.797-23.217
					c-12.724-15.9-31.888,9.779-39.6-3.342c-4.532-7.709,15.934-13.688,39.13-22.533c16.474-6.282,14.223-25.216,0-26.638
					c-14.223-1.422-20.346-0.441-11.102-11.108c9.245-10.667,36.528-31.755,21.129-42.816
					c-19.043-13.678-33.049,19.751-47.272,32.551c-14.223,12.8-0.687-22.118-21.31-15.007c-20.623,7.111,3.556,54.758-10.667,60.447
					c-14.223,5.689-32.712-45.513-55.469-2.845C558.92,398.521,570.565,417.765,585.017,431.64z"/>
				<g style="opacity:0.3;">
					<path style="fill:#FFFFFF;" d="M585.017,431.64h106.674c7.707-7.766,9.358-16.268,3.797-23.217
						c-12.724-15.9-31.888,9.779-39.6-3.342c-4.532-7.709,15.934-13.688,39.13-22.533c16.474-6.282,14.223-25.216,0-26.638
						c-14.223-1.422-20.346-0.441-11.102-11.108c9.245-10.667,36.528-31.755,21.129-42.816
						c-19.043-13.678-33.049,19.751-47.272,32.551c-14.223,12.8-0.687-22.118-21.31-15.007
						c-20.623,7.111,3.556,54.758-10.667,60.447c-14.223,5.689-32.712-45.513-55.469-2.845
						C558.92,398.521,570.565,417.765,585.017,431.64z"/>
				</g>
			</g>
			<g>
				<path style="fill:none;stroke:#4D5A64;stroke-miterlimit:10;" d="M609.567,430.008c0,0,42.924-86.301,82.266-116.644"/>
				<path style="fill:none;stroke:#4D5A64;stroke-miterlimit:10;" d="M635.141,384.375c0,0,16.003-12.963,62.134-18.146"/>
			</g>
		</g>
	</g>
</g>
<g id="Character3">
	<g>
		<g>
			<g>
				<g>
					<g>
						<path style="fill:#D880A6;" d="M359.407,225.496c0,0-71.218,9.472-111.732,40.596l37.464,51.387l72.061-45.991
							L359.407,225.496z"/>
					</g>
					<g>
						
							<line style="fill:none;stroke:#263238;stroke-width:0.9525;stroke-miterlimit:10;" x1="285.139" y1="317.479" x2="357.201" y2="271.488"/>
					</g>
				</g>
				<g>
					<g>
						<path style="fill:#D880A6;" d="M387.97,225.496c0,0,71.218,9.472,111.732,40.596l-37.464,51.387l-72.061-45.991
							L387.97,225.496z"/>
					</g>
					<g>
						
							<line style="fill:none;stroke:#263238;stroke-width:0.9525;stroke-miterlimit:10;" x1="462.238" y1="317.479" x2="390.177" y2="271.488"/>
					</g>
				</g>
			</g>
			<g>
				<polygon style="fill:#D880A6;" points="366.974,431.64 370.55,403.642 377.546,403.008 380.499,431.64 431.851,431.64 
					428.702,363.276 317.182,363.89 317.182,431.64 				"/>
				<path style="fill:#D880A6;" d="M440.198,420.837l0.594-15.671v-14.713h-0.139c0.089-3.309,0.139-6.641,0.139-10.002
					c0-87.233-26.971-157.95-67.686-157.95c-40.437,0-67.687,70.717-67.687,157.95c0,3.361,0.051,6.693,0.139,10.002v12.614v17.195
					l134.576,0.587L440.198,420.837"/>
				<path style="fill:none;stroke:#263238;stroke-miterlimit:10;" d="M424.353,272.272c10.504,27.015,16.438,62.916,16.438,102.316
					c0,3.236-0.05,6.445-0.139,9.63h0.139v18.789l-0.568,17.92"/>
				<path style="fill:none;stroke:#263238;stroke-miterlimit:10;" d="M320.859,275.156c-9.859,28.129-15.441,64.799-15.441,104.906
					c0,3.414,0.051,6.8,0.139,10.161v19.824v10.459h134.771"/>
				<g>
					<path style="fill:#D880A6;stroke:#263238;stroke-miterlimit:10;" d="M424.862,296.383v21.662
						c0,6.247-5.064,11.311-11.312,11.311h-8.205c-6.247,0-11.312-5.064-11.312-11.311v-21.662H424.862z"/>
					<g>
						<g>
							<rect x="394.033" y="296.383" style="fill:#D880A6;" width="30.828" height="8.04"/>
							<rect x="394.033" y="296.383" style="opacity:0.6;fill:#FFFFFF;" width="30.828" height="8.04"/>
						</g>
						<rect x="394.033" y="296.383" style="fill:none;stroke:#263238;stroke-miterlimit:10;" width="30.828" height="8.04"/>
					</g>
				</g>
			</g>
			<g>
				<g>
					<g>
						<path style="fill:#263238;" d="M338.748,263.886c1.114-9.736,4.017-19.432,9.266-27.76
							c4.188-6.645,10.18-12.678,17.794-15.173c6.976-2.285,14.39-1.122,20.583,2.719c6.925,4.294,11.908,11.214,15.333,18.489
							c4.847,10.292,6.727,21.851,6.441,33.167c-0.041,1.609,2.459,1.609,2.5,0c0.273-10.786-1.404-21.735-5.583-31.719
							c-3.37-8.053-8.387-15.647-15.531-20.821c-6.341-4.593-14.262-6.616-21.972-4.913c-8.121,1.794-14.794,7.389-19.642,13.943
							c-6.859,9.271-10.389,20.715-11.688,32.068C336.066,265.482,338.567,265.469,338.748,263.886L338.748,263.886z"/>
					</g>
				</g>
				<g>
					<path style="fill:#E0E0E0;stroke:#4D5A64;stroke-miterlimit:10;" d="M415.435,282.055c0,4.179-3.388,7.567-7.568,7.567
						c-4.179,0-7.567-3.388-7.567-7.567c0-4.179,3.388-7.567,7.567-7.567C412.047,274.488,415.435,277.876,415.435,282.055z"/>
					<path style="fill:#FAFAFA;" d="M411.946,282.055c0,2.253-1.826,4.079-4.079,4.079c-2.253,0-4.079-1.826-4.079-4.079
						s1.826-4.079,4.079-4.079C410.12,277.976,411.946,279.802,411.946,282.055z"/>
				</g>
				<g>
					<g>
						<g>
							<path style="fill:none;stroke:#E0E0E0;stroke-miterlimit:10;" d="M325.975,311.026c0,0,5.717,6.694,14.642,1.116
								c8.925-5.578,11.329-16.311,12.01-22.519"/>
							<circle style="fill:#E0E0E0;" cx="325.309" cy="310.011" r="1.844"/>
						</g>
						<g>
							<path style="fill:none;stroke:#E0E0E0;stroke-miterlimit:10;" d="M354.704,310.926c0,0-5.63,6.767-14.626,1.305
								c-8.996-5.462-11.54-16.163-12.3-22.362"/>
							<path style="fill:#E0E0E0;" d="M353.514,309.926c0.013,1.018,0.849,1.833,1.867,1.82c1.018-0.013,1.833-0.849,1.82-1.867
								c-0.013-1.018-0.849-1.833-1.867-1.819C354.315,308.072,353.501,308.908,353.514,309.926z"/>
						</g>
					</g>
					<g>
						<g>
							<path style="fill:#4D5A64;" d="M329.095,290.576c-0.979-4.817-0.976-9.901,0.27-14.671c0.904-3.463,2.534-7.162,5.463-9.389
								c6.455-4.906,12.49,2.632,14.587,8.251c1.96,5.253,2.444,11.095,1.533,16.617c-0.259,1.574,2.149,2.251,2.411,0.665
								c0.924-5.603,0.622-11.471-1.16-16.884c-1.364-4.141-3.63-8.273-7.269-10.825c-2.99-2.097-6.767-2.496-10.039-0.812
								c-3.69,1.9-5.971,5.843-7.299,9.625c-2.022,5.758-2.112,12.148-0.906,18.086C327.004,292.816,329.415,292.15,329.095,290.576
								L329.095,290.576z"/>
						</g>
					</g>
				</g>
				<path style="fill:#4D5A64;" d="M340.494,245.912c-2.148,5.786-3.493,11.891-4.189,17.974c-0.174,1.523,2.213,1.511,2.386,0
					c0.671-5.867,1.996-11.72,4.088-17.27C341.833,245.686,341.056,245.657,340.494,245.912z"/>
			</g>
			<g>
				<g>
					<path style="fill:#FFFFFF;stroke:#263238;stroke-miterlimit:10;" d="M282.908,351.508
						c-12.581-4.18-37.543-22.618-17.165-48.174c2.997-3.759,7.134-7.414,11.888-10.887l-17.934-29.32
						c-23.693,15.574-39.011,35.42-37.006,60.327c3.22,40.022,50.876,60.23,67.686,63.768c16.81,3.538,23.376,15.111,27.655,11.595
						c2.492-2.048-7.003-12.345-11.226-15.421c4.347,2.633,11.851,12.972,15.679,9.437c2.826-2.61-8.828-11.59-12.12-15.065
						c3.577,3.011,13.103,12.735,15.771,9.74c3.332-3.739-13.318-17.491-13.318-17.491c4.063,2.674,8.995,7.729,12.549,10.233
						c2.829,1.993,6.685,3.027,5.662-1.401c-0.54-2.338-4.226-5.016-6.728-7.268C314.503,362.763,292.929,354.838,282.908,351.508z"
						/>
					<path style="fill:#D880A6;" d="M261.748,256.752c-4.963,2.872-9.697,5.979-14.072,9.34l37.464,51.386l11.268-7.191
						L261.748,256.752z"/>
					<polyline style="fill:none;stroke:#263238;stroke-width:0.9525;stroke-miterlimit:10;" points="247.675,266.092 
						285.139,317.479 296.408,310.287 261.748,256.752 					"/>
					<g>
						<g>
							<path style="fill:#D880A6;" d="M322.483,392.833c2.826-2.61-8.828-11.59-12.12-15.065c3.577,3.011,13.103,12.735,15.771,9.74
								c3.332-3.739-13.318-17.491-13.318-17.491c3.618,2.381,7.964,7.066,11.799,9.796c3.901,2.777,7.253,3.543,6.057-0.926
								c-2.906-10.861-35.184-23.199-47.765-27.379c-2.27-0.754-4.943-1.975-7.68-3.615c-6.973,9.24-10.89,21.073-12.765,28.173
								c10.994,6.167,21.616,9.83,27.912,11.156c16.81,3.538,23.376,15.111,27.655,11.595c2.492-2.048-7.003-12.345-11.226-15.421
								C311.15,386.029,318.655,396.368,322.483,392.833z"/>
							<path style="opacity:0.7;fill:#FFFFFF;" d="M322.483,392.833c2.826-2.61-8.828-11.59-12.12-15.065
								c3.577,3.011,13.103,12.735,15.771,9.74c3.332-3.739-13.318-17.491-13.318-17.491c5.77,6.772,21.635,17.691,17.546,8.287
								c-4.541-10.443-34.873-22.616-47.454-26.796c-2.27-0.754-4.943-1.975-7.68-3.615c-6.973,9.24-10.89,21.073-12.765,28.173
								c10.994,6.167,21.616,9.83,27.912,11.156c16.81,3.538,23.376,15.111,27.655,11.595c2.492-2.048-7.003-12.345-11.226-15.421
								C311.15,386.029,318.655,396.368,322.483,392.833z"/>
						</g>
						<g>
							<path style="fill:none;stroke:#263238;stroke-miterlimit:10;" d="M322.483,392.833c2.826-2.61-8.828-11.59-12.12-15.065
								c3.577,3.011,13.103,12.735,15.771,9.74c3.332-3.739-13.318-17.491-13.318-17.491c3.691,2.429,8.372,7.082,11.799,9.796
								c3.35,2.652,7.89,3.233,6.102-1.47c-0.705-1.854-3.43-3.872-5.25-5.754c-9-9.307-32.095-17.604-42.56-21.081
								c-2.27-0.754-4.943-1.975-7.68-3.615c-6.973,9.24-10.89,21.073-12.765,28.173c10.994,6.167,21.616,9.83,27.912,11.156
								c16.81,3.538,23.376,15.111,27.655,11.595c2.492-2.048-7.003-12.345-11.226-15.421
								C311.15,386.029,318.655,396.368,322.483,392.833z"/>
							<path style="fill:none;stroke:#263238;stroke-miterlimit:10;" d="M265.085,377.605c0,0,4.34-16.99,12.146-28.658"/>
						</g>
					</g>
				</g>
				<g>
					<path style="fill:#FFFFFF;stroke:#263238;stroke-miterlimit:10;" d="M463.586,351.508c12.581-4.18,37.543-22.618,17.165-48.174
						c-2.998-3.759-7.134-7.414-11.887-10.887l17.934-29.32c23.693,15.574,39.011,35.42,37.006,60.327
						c-3.22,40.022-50.876,60.23-67.686,63.768c-16.81,3.538-23.376,15.111-27.655,11.595c-2.492-2.048,7.003-12.345,11.226-15.421
						c-4.347,2.633-11.851,12.972-15.679,9.437c-2.826-2.61,8.828-11.59,12.121-15.065c-3.577,3.011-13.103,12.735-15.771,9.74
						c-3.332-3.739,13.318-17.491,13.318-17.491c-7.298,4.803-18.468,18.301-16.161,8.31
						C420.17,366.834,451.004,355.689,463.586,351.508z"/>
					<path style="fill:#D880A6;" d="M484.745,256.752c4.963,2.872,9.697,5.979,14.072,9.34l-37.464,51.386l-11.268-7.191
						L484.745,256.752z"/>
					<polyline style="fill:none;stroke:#263238;stroke-width:0.9525;stroke-miterlimit:10;" points="498.818,266.092 
						461.354,317.479 450.086,310.287 484.745,256.752 					"/>
					<g>
						<g>
							<path style="fill:#D880A6;" d="M424.01,392.833c-2.826-2.61,8.828-11.59,12.12-15.065
								c-3.577,3.011-13.103,12.735-15.771,9.74c-3.332-3.739,13.318-17.491,13.318-17.491
								c-5.145,3.386-12.214,11.093-15.129,11.846c-1.22,0.315-2.783-0.297-2.103-3.245c0.465-2.013,2.865-4.307,4.809-6.263
								c9.156-9.212,31.953-17.399,42.331-20.848c2.27-0.754,4.943-1.975,7.68-3.615c6.973,9.24,10.89,21.073,12.765,28.173
								c-10.994,6.167-21.616,9.83-27.912,11.156c-16.81,3.538-23.376,15.111-27.655,11.595
								c-2.492-2.048,7.003-12.345,11.226-15.421C435.343,386.029,427.839,396.368,424.01,392.833z"/>
							<path style="opacity:0.7;fill:#FFFFFF;" d="M424.01,392.833c-2.826-2.61,8.828-11.59,12.12-15.065
								c-3.577,3.011-13.103,12.735-15.771,9.74c-3.332-3.739,13.318-17.491,13.318-17.491c-4.548,2.993-11.033,9.552-14.726,11.639
								c-1.257,0.71-3.293,1.036-2.423-2.729c2.654-11.493,34.476-23.238,47.057-27.418c2.27-0.754,4.943-1.975,7.68-3.615
								c6.973,9.24,10.89,21.073,12.765,28.173c-10.994,6.167-21.616,9.83-27.912,11.156c-16.81,3.538-23.376,15.111-27.655,11.595
								c-2.492-2.048,7.003-12.345,11.226-15.421C435.343,386.029,427.839,396.368,424.01,392.833z"/>
						</g>
						<g>
							<path style="fill:none;stroke:#263238;stroke-miterlimit:10;" d="M424.01,392.833c-2.826-2.61,8.828-11.59,12.12-15.065
								c-3.577,3.011-13.103,12.735-15.771,9.74c-3.332-3.739,13.318-17.491,13.318-17.491c-4.353,2.865-10.084,8.824-13.51,11.046
								c-1.924,1.247-3.725,1.545-3.989-0.763c-0.272-2.384,2.834-5.522,4.423-7.26c8.676-9.489,32.35-17.999,42.984-21.532
								c2.27-0.754,4.943-1.975,7.68-3.615c6.973,9.24,10.89,21.073,12.765,28.173c-10.994,6.167-21.616,9.83-27.912,11.156
								c-16.81,3.538-23.376,15.111-27.655,11.595c-2.492-2.048,7.003-12.345,11.226-15.421
								C435.343,386.029,427.839,396.368,424.01,392.833z"/>
							<path style="fill:none;stroke:#263238;stroke-miterlimit:10;" d="M481.408,377.605c0,0-4.34-16.99-12.146-28.658"/>
						</g>
					</g>
				</g>
			</g>
		</g>
		<g>
			<g>
				<path style="fill:#FFFFFF;stroke:#263238;stroke-miterlimit:10;" d="M372.914,252.225l-18.342-24.618
					c3.061-1.742,6.195-3.069,9.392-3.943l-0.12-13.328c-0.042-4.61,3.696-8.416,8.306-8.458l3.571-0.032
					c4.61-0.042,8.416,3.696,8.458,8.306l0.127,14.096c3.793,1.259,7.492,3.159,11.079,5.633L372.914,252.225z"/>
				<g>
					<g>
						<path style="fill:#D880A6;" d="M395.985,230.292l-23.993,26.867l-20.745-27.48c2.796-1.901,5.659-3.458,8.582-4.628
							l12.244,19.082l16.084-18.378C390.82,226.959,393.432,228.478,395.985,230.292z"/>
						<path style="opacity:0.6;fill:#FFFFFF;" d="M395.985,230.292l-23.993,26.867l-20.745-27.48
							c2.796-1.901,5.659-3.458,8.582-4.628l12.244,19.082l16.084-18.378C390.82,226.959,393.432,228.478,395.985,230.292z"/>
					</g>
					<path style="fill:none;stroke:#263238;stroke-miterlimit:10;" d="M395.985,230.292l-23.993,26.867l-20.745-27.48
						c2.796-1.901,5.659-3.458,8.582-4.628l12.244,19.082l16.084-18.378C390.82,226.959,393.432,228.478,395.985,230.292z"/>
				</g>
			</g>
			<g>
				<g>
					<g>
						<path style="fill:#263238;" d="M345.252,183.483c0,0-6.13-10.339-4.482-25.178c2.71-24.41,30.463-20.967,33.814-21.124
							c11.015-0.514,30.331,1.459,32.243,15.971c1.912,14.512-3.414,34.4-3.895,36.718
							C402.452,192.188,354.396,199.602,345.252,183.483z"/>
						<g>
							<g>
								<path style="fill:#FFFFFF;stroke:#263238;stroke-miterlimit:10;" d="M335.656,187.526c-0.131,4.285,3.266,7.866,7.586,7.998
									c4.32,0.131,7.929-3.236,8.059-7.521c0.131-4.285-3.266-7.866-7.586-7.997C339.395,179.874,335.787,183.241,335.656,187.526
									z"/>
								<g>
									<path style="fill:#263238;" d="M347.075,188.918c0.016-0.165,0.015-0.332,0.01-0.497c-0.005-0.179-0.017-0.358-0.037-0.536
										c-0.008-0.073,0.012-0.198,0-0.008c0.003-0.05-0.017-0.112-0.025-0.161c-0.02-0.119-0.043-0.237-0.071-0.354
										c-0.057-0.243-0.132-0.48-0.221-0.713c-0.061-0.158,0.05,0.103-0.022-0.053c-0.026-0.055-0.051-0.109-0.078-0.163
										c-0.067-0.132-0.14-0.261-0.221-0.385c-0.035-0.053-0.071-0.104-0.107-0.155c-0.097-0.139,0.064,0.068-0.047-0.06
										c-0.104-0.12-0.209-0.235-0.326-0.342c-0.05-0.046-0.104-0.088-0.154-0.133c-0.102-0.091,0.08,0.058,0.008,0.006
										c-0.028-0.021-0.056-0.042-0.085-0.061c-0.137-0.096-0.282-0.182-0.431-0.257c-0.034-0.017-0.068-0.033-0.102-0.05
										c-0.028-0.013-0.056-0.026-0.084-0.038c0.073,0.03,0.078,0.032,0.014,0.007c-0.092-0.032-0.182-0.068-0.275-0.097
										c-0.199-0.063-0.403-0.111-0.609-0.147c-0.014-0.003-0.196-0.03-0.061-0.012c-0.057-0.008-0.115-0.014-0.173-0.02
										c-0.12-0.012-0.241-0.02-0.361-0.024c-0.287-0.011-0.575-0.002-0.861,0.019c-0.326,0.024-0.605-0.295-0.605-0.604
										c0-0.347,0.278-0.58,0.605-0.604c1.707-0.125,3.449,0.304,4.523,1.717c0.661,0.87,0.951,1.974,1.009,3.052
										c0.012,0.223,0.018,0.451-0.003,0.675c-0.031,0.325-0.256,0.604-0.604,0.604
										C347.376,189.522,347.044,189.245,347.075,188.918L347.075,188.918z"/>
								</g>
							</g>
							<g>
								<path style="fill:#FFFFFF;stroke:#263238;stroke-miterlimit:10;" d="M412.416,188.629c-0.131,4.285-3.739,7.653-8.059,7.521
									c-4.32-0.132-7.717-3.712-7.586-7.998c0.131-4.285,3.739-7.652,8.059-7.521C409.15,180.764,412.546,184.344,412.416,188.629
									z"/>
								<g>
									<path style="fill:#263238;" d="M399.726,189.287c-0.066-1.995,0.963-4.091,2.863-4.861
										c0.989-0.401,2.072-0.392,3.112-0.252c0.324,0.044,0.5,0.459,0.422,0.743c-0.096,0.35-0.419,0.466-0.744,0.422
										c-0.793-0.107-1.53-0.083-2.264,0.173c-0.039,0.014-0.26,0.105-0.128,0.046c-0.071,0.032-0.143,0.065-0.212,0.101
										c-0.147,0.076-0.285,0.163-0.421,0.257c-0.142,0.098,0.046-0.049-0.082,0.063c-0.053,0.046-0.106,0.091-0.158,0.14
										c-0.105,0.099-0.2,0.205-0.294,0.314c-0.022,0.025-0.042,0.052-0.063,0.078c0.093-0.115,0.04-0.054,0.022-0.027
										c-0.036,0.055-0.076,0.107-0.113,0.162c-0.078,0.118-0.15,0.241-0.216,0.366c-0.029,0.056-0.057,0.112-0.084,0.169
										c-0.02,0.042-0.1,0.238-0.029,0.059c-0.046,0.117-0.092,0.234-0.131,0.354c-0.071,0.215-0.128,0.434-0.173,0.656
										c-0.02,0.096-0.037,0.193-0.052,0.29c-0.01,0.068-0.069,0.194-0.001,0c-0.014,0.04-0.011,0.095-0.016,0.137
										c-0.021,0.202-0.038,0.408-0.031,0.611C400.961,190.065,399.752,190.064,399.726,189.287L399.726,189.287z"/>
								</g>
							</g>
						</g>
						<path style="fill:#FFFFFF;stroke:#263238;stroke-miterlimit:10;" d="M398.776,190.404c-0.118,11.7-9.787,21.176-21.488,21.057
							l-6.909-0.07c-11.7-0.118-21.176-9.787-21.058-21.487l0.232-22.951c0.118-11.7,9.787-21.176,21.487-21.058l6.909,0.07
							c11.7,0.118,21.176,9.787,21.058,21.487L398.776,190.404z"/>
					</g>
					<g>
						<polygon style="fill:#D880A6;" points="373.973,173.622 371.149,184.926 377.079,184.867 						"/>
						<g>
							<path style="fill:#D880A6;" d="M362.72,189.784c-0.295,3.429-3.314,5.969-6.742,5.673c-3.428-0.295-5.969-3.313-5.673-6.742
								c0.295-3.428,3.314-5.969,6.742-5.674C360.475,183.337,363.016,186.355,362.72,189.784z"/>
							<path style="fill:#D880A6;" d="M396.818,189.784c-0.295,3.429-3.313,5.968-6.742,5.673c-3.428-0.295-5.969-3.313-5.673-6.742
								c0.295-3.428,3.314-5.969,6.742-5.674C394.573,183.337,397.113,186.355,396.818,189.784z"/>
						</g>
						<path style="fill:#FFFFFF;stroke:#263238;stroke-miterlimit:10;" d="M370.079,193.352c0.281,2.426,2.307,4.327,4.812,4.352
							c2.505,0.025,4.569-1.835,4.899-4.254L370.079,193.352z"/>
						<g>
							<path style="fill:#263238;" d="M361.005,178.044c-0.067,1.58-1.402,2.808-2.983,2.741c-1.581-0.067-2.808-1.402-2.741-2.983
								c0.067-1.581,1.402-2.808,2.983-2.741C359.845,175.128,361.072,176.463,361.005,178.044z"/>
							<path style="fill:#263238;" d="M391.325,178.044c-0.066,1.581-1.402,2.808-2.983,2.742c-1.581-0.067-2.808-1.402-2.741-2.983
								c0.067-1.581,1.402-2.808,2.983-2.741C390.164,175.128,391.392,176.463,391.325,178.044z"/>
						</g>
					</g>
				</g>
				<g>
					<path style="fill:#263238;" d="M345.223,171.066c0,0,23.661-5.991,31.856-19.329c0,0,14.364,16.94,25.853,17.205
						c6.907,0.159,0.417-24.427-12.322-26.127c-12.739-1.699-32.705-1.699-38.44,6.16
						C346.435,156.835,345.223,171.066,345.223,171.066z"/>
					<path style="fill:#263238;" d="M395.683,115.149c1.133,9.716-6.278,18.563-16.552,19.761
						c-10.274,1.198-19.522-5.707-20.655-15.423c-1.133-9.716,6.278-18.563,16.552-19.761
						C385.303,98.528,394.55,105.433,395.683,115.149z"/>
				</g>
			</g>
			<g>
				<ellipse style="fill:none;stroke:#4D5A64;stroke-miterlimit:10;" cx="358.614" cy="174.826" rx="10.835" ry="12.152"/>
				<ellipse style="fill:none;stroke:#4D5A64;stroke-miterlimit:10;" cx="389.905" cy="174.826" rx="10.835" ry="12.152"/>
				<path style="fill:none;stroke:#4D5A64;stroke-miterlimit:10;" d="M368.847,178.418c1.177-0.61,2.946-1.284,5.017-1.284
					c2.419,0,4.461,0.784,5.728,1.426"/>
			</g>
		</g>
	</g>
</g>
<g id="Character2">
	<g>
		<g>
			<path style="fill:#EAEAEA;" d="M478.289,403.642c0,0-16.482,9.876-26.846-1.421c-10.364-11.297-14.821-28.318-2.591-68.261
				c12.23-39.943,43.172-71.451,69.055-85.753c25.883-14.303,34.796-12.852,42.673-12.645
				c7.877,0.207-41.088,142.966-41.088,142.966L478.289,403.642z"/>
			<path style="fill:#EAEAEA;" d="M578.208,236.703c0,0,8.293-5.805,46.532,22.489c38.24,28.295,53.586,54.835,64.047,100.638
				s-20.268,52.226-41.694,48.966c-21.425-3.259-20.804-33.778-20.804-33.778L578.208,236.703z"/>
		</g>
		<g>
			<g>
				<g>
					<polygon style="fill:#D880A6;" points="606.881,431.64 605.886,410.86 523.98,408.797 522.582,431.64 					"/>
					<polygon style="opacity:0.3;" points="606.881,431.64 605.886,410.86 523.98,408.797 522.582,431.64 					"/>
				</g>
				<g>
					<g>
						<path style="fill:#FFFFFF;stroke:#0C0C0C;stroke-width:0.75;stroke-miterlimit:10;" d="M633.831,424.195
							c2.492-14.343,3.861-29.671,3.861-45.622c0-79.628-33.628-144.179-75.111-144.179c-41.483,0-70.413,64.814-75.111,144.179
							c-0.943,15.923,1.369,31.279,3.861,45.622H633.831z"/>
					</g>
				</g>
			</g>
			<g>
				<g>
					<path style="fill:#EAEAEA;" d="M534.88,431.64l11.673-194.937c0,0-7.716,3.096-9.658,4.589
						c-26.083,18.164-45.344,65.002-48.834,119.536c-0.022,0.17-0.034,0.264-0.034,0.264l-0.059,1.084c0,0.001,0,0.002,0,0.003
						l-0.128,2.347l-3.65,67.114H534.88z"/>
					<g>
						<path style="fill:none;stroke:#000000;stroke-miterlimit:10;" d="M546.553,236.703"/>
						<path style="fill:none;stroke:#263238;stroke-miterlimit:10;" d="M500.417,299.208c-6.51,18.266-10.927,39.276-12.357,61.62
							c-0.022,0.17-0.034,0.264-0.034,0.264l-0.059,1.085c0,0.001,0,0.002,0,0.003l-0.128,2.347l-3.65,67.113"/>
					</g>
					<path style="fill:#EAEAEA;stroke:#263238;stroke-miterlimit:10;" d="M513.518,431.64c0.838-11.385,0.395-22.843,0.395-22.843
						h-24.77l-3.725,0.257l-1.228,22.586H513.518z"/>
					<line style="fill:none;stroke:#263238;stroke-miterlimit:10;" x1="485.113" y1="416.566" x2="514.028" y2="416.566"/>
					<path style="fill:none;stroke:#263238;stroke-miterlimit:10;" d="M541.379,238.671c-2.837,7.942-13.357,38.438-13.357,38.438
						l6.527,1.518l0.001,0.292l-10.077,6.93l10.522,125.012"/>
				</g>
				<g>
					<g>
						<path style="fill:#EAEAEA;" d="M643.417,431.64l-3.65-67.114l-0.128-2.347c0-0.001,0-0.002,0-0.003l-0.059-1.084
							c0,0-0.012-0.093-0.034-0.264c-3.49-54.534-24.771-101.115-50.855-119.278c-1.942-1.493-7.638-4.846-7.638-4.846
							l11.673,194.937H643.417z"/>
					</g>
					<g>
						<path style="fill:none;stroke:#000000;stroke-miterlimit:10;" d="M581.053,236.703"/>
						<path style="fill:none;stroke:#263238;stroke-miterlimit:10;" d="M632.51,309.562l4.214,26.767
							c1.329,7.929,2.285,16.121,2.821,24.5c0.022,0.17,0.034,0.264,0.034,0.264l0.059,1.085c0,0.001,0,0.002,0,0.003l0.128,2.347
							l3.65,67.115"/>
					</g>
					<path style="fill:#EAEAEA;stroke:#263238;stroke-miterlimit:10;" d="M643.417,431.64l-1.228-22.586l-3.725-0.257h-24.77
						c0,0-0.442,11.458,0.395,22.843H643.417z"/>
					<line style="fill:none;stroke:#263238;stroke-miterlimit:10;" x1="613.576" y1="416.566" x2="642.597" y2="416.566"/>
					<path style="fill:none;stroke:#263238;stroke-miterlimit:10;" d="M586.909,238.672c2.837,7.942,12.676,38.437,12.676,38.437
						l-6.527,1.518l-0.001,0.292l10.077,6.93L592.612,410.86"/>
				</g>
			</g>
		</g>
		<g>
			<path style="fill:#D880A6;" d="M581.171,238.672c0,5.841-7.75,10.576-17.309,10.576c-9.56,0-17.309-4.735-17.309-10.576
				c0-5.841,7.75-10.576,17.309-10.576C573.422,228.096,581.171,232.831,581.171,238.672z"/>
			<g>
				<path style="fill:#263238;" d="M550.027,142.898c0,0,29.879-8.681,46.759,25.776c12.958,26.451,9.03,44.954,6.505,52.124
					c-0.701,1.99-2.463,3.332-4.472,3.389l-70.011,1.982c-2.245,0.064-4.237-1.488-4.851-3.772
					C520.02,207.74,509.275,155.885,550.027,142.898z"/>
				<g>
					<path style="fill:none;stroke:#263238;stroke-width:1.8801;stroke-miterlimit:10;" d="M594.851,195.762
						c-0.306,6.033-5.485,10.673-11.567,10.365c-6.082-0.309-10.764-5.45-10.458-11.482c0.306-6.033,5.485-10.673,11.567-10.364
						C590.475,184.588,595.157,189.729,594.851,195.762z"/>
					<path style="fill:#FFFFFF;stroke:#263238;stroke-width:0.94;stroke-miterlimit:10;" d="M548.592,159.432l13.833,0.702
						c9.196,0.467,16.286,9.416,15.755,19.886l-1.088,21.443c-0.031,0.604-0.092,1.199-0.171,1.787
						c0.117,0.64,0.171,1.3,0.137,1.976l-0.662,13.053l-0.037,0.727l-0.663,13.053c-0.24,4.737-4.313,8.415-9.049,8.175
						l-5.487-0.278c-4.737-0.24-8.415-4.312-8.175-9.049l0.586-11.552l-7.999-0.406c-9.196-0.467-16.286-9.415-15.755-19.886
						l1.088-21.443C531.437,167.15,539.396,158.965,548.592,159.432z"/>
					<g>
						<g>
							<path style="fill:#263238;" d="M558.231,186.031c-0.088,1.722-1.554,3.047-3.276,2.96c-1.722-0.087-3.047-1.554-2.96-3.276
								c0.087-1.722,1.554-3.047,3.276-2.96C556.993,182.842,558.318,184.309,558.231,186.031z"/>
							<path style="fill:#263238;" d="M537.84,184.539c-0.074,1.47-1.327,2.601-2.797,2.527c-1.47-0.074-2.601-1.327-2.527-2.797
								c0.075-1.47,1.327-2.601,2.797-2.526C536.784,181.817,537.915,183.069,537.84,184.539z"/>
						</g>
						<g>
							<path style="fill:#FFFFFF;" d="M540.17,197.448c0,0,1.335,4.646,4.632,5.127c3.297,0.482,6.08-3.057,6.404-5.914
								L540.17,197.448z"/>
							<g>
								<path style="fill:#263238;" d="M539.664,197.587c0.465,1.601,1.379,3.266,2.653,4.354c2.327,1.989,5.445,1.236,7.378-0.92
									c1.092-1.218,1.831-2.734,2.037-4.36c0.034-0.269-0.268-0.543-0.525-0.525c-3.216,0.229-6.432,0.458-9.648,0.688
									c-0.463,0.033-0.926,0.066-1.389,0.099c-0.67,0.048-0.675,1.098,0,1.049c3.216-0.229,6.432-0.458,9.648-0.688
									c0.463-0.033,0.926-0.066,1.389-0.099c-0.175-0.175-0.35-0.35-0.525-0.525c-0.299,2.37-2.238,5.007-4.704,5.392
									c-2.237,0.349-3.802-1.456-4.705-3.266c-0.237-0.474-0.449-0.969-0.597-1.479
									C540.488,196.661,539.475,196.936,539.664,197.587z"/>
							</g>
						</g>
						<g>
							<path style="fill:#D880A6;" d="M568.487,198.048c-0.217,4.28-3.863,7.574-8.144,7.357c-4.281-0.217-7.574-3.863-7.357-8.144
								c0.217-4.28,3.863-7.574,8.144-7.357C565.41,190.121,568.704,193.767,568.487,198.048z"/>
							<path style="fill:#D880A6;" d="M532.028,190.946c-0.472-0.024-0.931,0.014-1.377,0.097l-0.408,8.039
								c-0.061,1.201-0.075,2.365,0.111,3.509c0.321,0.071,0.736,0.137,1.075,0.154c3.258,0.165,6.033-2.342,6.199-5.6
								C537.793,193.886,535.285,191.111,532.028,190.946z"/>
						</g>
						<polygon style="fill:#D880A6;" points="544.456,182.206 544.555,192.856 539.642,189.51 						"/>
					</g>
					<path style="fill:#263238;" d="M528.367,177.314c0,0,11.396-3.493,18.115-14.336c0,0,6.124,16.128,26.257,25.197
						c26.347,11.868,13.167-20.428,5.871-28.773C571.314,151.057,534.066,140.676,528.367,177.314z"/>
					<g>
						<path style="fill:#FFFFFF;" d="M594.851,195.762c-0.306,6.033-5.485,10.673-11.567,10.365
							c-6.082-0.309-10.764-5.45-10.458-11.482c0.306-6.033,5.485-10.673,11.567-10.364
							C590.475,184.588,595.157,189.729,594.851,195.762z"/>
						<g>
							<g>
								<path style="fill:#263238;" d="M578.455,196.343c-0.003-0.23,0.017-0.462,0.041-0.691c0.006-0.055,0.013-0.109,0.019-0.164
									c0.015-0.142-0.025,0.147,0.004-0.024c0.024-0.145,0.047-0.289,0.075-0.432c0.06-0.301,0.136-0.598,0.229-0.89
									c0.415-1.307,1.308-2.548,2.6-3.099c1.158-0.493,2.442-0.502,3.683-0.31c0.345,0.054,0.696-0.088,0.796-0.452
									c0.084-0.307-0.104-0.742-0.452-0.796c-2.276-0.353-4.746-0.097-6.393,1.681c-1.028,1.11-1.592,2.579-1.8,4.062
									c-0.052,0.367-0.1,0.742-0.095,1.114C577.172,197.175,578.466,197.178,578.455,196.343L578.455,196.343z"/>
							</g>
						</g>
					</g>
				</g>
			</g>
		</g>
		<g>
			<g>
				<g>
					<path style="fill:#EAEAEA;" d="M456.118,387.222c0,0-2.77-16.06,3.199-23.946c5.969-7.886,6.05-8.975,16.018-14.271
						c9.968-5.296,26.121-10.379,26.121-10.379s8.588-2.72,12.408,2.259c3.82,4.979,14.552,28.127,14.552,28.127
						s1.859,7.359-2.999,10.78c-4.858,3.421-50.965,25.676-50.965,25.676S459.513,405.975,456.118,387.222z"/>
					<path style="fill:none;stroke:#263238;stroke-miterlimit:10;" d="M456.118,387.222c0,0-2.904-12.936,2.495-22.907
						c4.709-8.697,6.754-10.015,16.721-15.311c9.968-5.296,26.121-10.379,26.121-10.379s8.588-2.72,12.408,2.259
						c3.82,4.979,14.552,28.127,14.552,28.127s1.859,7.359-2.999,10.78c-4.858,3.421-50.965,25.676-50.965,25.676"/>
					<path style="fill:none;stroke:#263238;stroke-miterlimit:10;" d="M501.456,348.947c0,0-3.99,14.075,10.127,26.355"/>
				</g>
				<g>
					<path style="fill:#FFFFFF;stroke:#263238;stroke-miterlimit:10;" d="M514.284,366.27c0,0-7.625-6.366-6.097-16.867
						c1.21-8.315,4.423-13.56,14.351-18.525c2.611-1.306,5.686-2.592,9.311-3.91c3.715-1.35,7.446,3.284,10.529,4.84
						c6.01,3.031,9.389,6.24,10.533,9.833c1.73,5.436-0.217,11.108-3.938,15.702C545.25,361.937,526.076,377.652,514.284,366.27z"/>
					<g>
						<g>
							<path style="fill:#4D5A64;" d="M514.669,315.577c4.364,6.81,8.727,13.619,13.091,20.429c0.621,0.969,1.242,1.939,1.863,2.908
								c1.057,1.65,3.38,2.474,5.131,1.345c1.65-1.064,2.477-3.364,1.345-5.131c-4.364-6.81-8.727-13.619-13.091-20.429
								c-0.621-0.969-1.242-1.939-1.863-2.908c-1.057-1.65-3.38-2.474-5.131-1.345C514.364,311.51,513.537,313.81,514.669,315.577
								L514.669,315.577z"/>
						</g>
					</g>
					<g>
						<path style="fill:#FFFFFF;" d="M517.146,351.616c0,0-3.315-7.953-2.584-10.961c0.731-3.008,3.451-4.501,8.585-6.214
							c5.134-1.714,18.257-5.766,20.607-5.716c2.35,0.05,3.747,1.665,3.968,2.602c0.221,0.937,0.551,2.634,1.27,3.05
							c0.72,0.416,1.962,1.391,2.12,2.273c0.158,0.882,0.225,1.7,1.417,1.825c1.192,0.126,0.827,3.389,0.796,7.572
							c-0.03,4.184-10.076,16.026-12.728,17.283c-2.652,1.258-11.296,3.181-13.97,0.596
							C523.953,361.339,517.565,352.674,517.146,351.616z"/>
						<g>
							<path style="fill:none;stroke:#263238;stroke-miterlimit:10;" d="M519.492,336.41c0,0,22.443-8.784,25.448-7.672
								c3.005,1.113,4.655,5.178,0.768,7.474c-3.886,2.296-23.054,9.097-23.054,9.097"/>
							<path style="fill:none;stroke:#263238;stroke-miterlimit:10;" d="M527.765,354.933c0,0,16.035-7.567,20.367-11.471
								c4.333-3.905,4.178-8.442-0.365-9.502"/>
							<path style="fill:none;stroke:#263238;stroke-miterlimit:10;" d="M533.303,362.356c0,0,15.904-10.848,18.871-14.977
								c2.968-4.129,1.048-11.026-1.007-8.568"/>
						</g>
					</g>
				</g>
			</g>
			<g>
				<path style="fill:#263238;" d="M606.159,417.741h-64.31c-5.767,0-10.443-4.675-10.443-10.443V315.42
					c0-5.767,4.675-10.443,10.443-10.443h64.31c5.767,0,10.443,4.675,10.443,10.443v91.879
					C616.602,413.066,611.927,417.741,606.159,417.741z"/>
				<g>
					<path style="fill:#4D5A64;" d="M590.018,313.942h-32.026c-2.79,0-5.052-2.262-5.052-5.052v-2.022
						c0-2.79,2.262-5.052,5.052-5.052h32.026c2.79,0,5.052,2.262,5.052,5.052v2.022C595.07,311.68,592.808,313.942,590.018,313.942z
						"/>
					<path style="fill:#4D5A64;" d="M574.004,293.153c-5.173,0-9.367,4.194-9.367,9.367c0,5.173,4.194,9.367,9.367,9.367
						c5.173,0,9.367-4.194,9.367-9.367C583.371,297.346,579.178,293.153,574.004,293.153z M574.004,307.634
						c-2.825,0-5.115-2.29-5.115-5.115c0-2.825,2.29-5.115,5.115-5.115s5.115,2.29,5.115,5.115
						C579.119,305.344,576.829,307.634,574.004,307.634z"/>
				</g>
			</g>
			<g>
				<g>
					<path style="fill:#EAEAEA;" d="M650.154,409.184l-22.263-4.662c0,0-5.701-1.683-6.461-10.267
						c-0.621-7.009,5.994-33.891,6.543-35.995c0.977-3.747,3.258-9.204,15.445-6.329c11.882,2.803,29.87,4.978,33.642,20.64
						c3.772,15.662-0.137,24.458-1.115,26.087C674.967,400.287,658.12,409.315,650.154,409.184z"/>
					<path style="fill:none;stroke:#263238;stroke-miterlimit:10;" d="M650.154,409.184l-22.263-4.662c0,0-5.701-1.683-6.461-10.267
						c-0.621-7.009,5.994-33.891,6.543-35.995c0.977-3.747,3.258-9.204,15.445-6.329c11.882,2.803,29.87,4.978,33.642,20.64
						c0.773,3.209,1.223,6.131,1.443,8.761"/>
				</g>
				<g>
					<path style="fill:#FFFFFF;" d="M633.551,361.431c-4.245-5.046-17.055-7.897-17.055-7.897l0.106,7.367
						c0,0-24.193-3.93-27.721-3.298c-4.544,0.814-6.04,6.325,1.462,8.49c0.942,0.272-0.822-0.264-0.822-0.264
						c-7.946-0.875-7.701,7.473-2.44,8.808c2.178,0.553,1.755,0.42,1.755,0.42c-2.272-0.439-3.495,2.938,0.26,5.696
						c0.903,0.663,2.577,1.281,4.593,1.839l-0.254,0.135c0,0-2.723,1.264,0.968,4.034c3.692,2.769,16.614,5.069,25.354,4.505
						c8.74-0.564,13.077-9.412,14.594-13.574C635.868,373.529,637.535,366.167,633.551,361.431z"/>
					<g>
						<path style="fill:none;stroke:#263238;stroke-miterlimit:10;" d="M612.094,379.377c0,0-21.079-3.741-25.014-4.74
							c-5.26-1.335-5.505-9.683,2.44-8.808"/>
						<path style="fill:none;stroke:#263238;stroke-miterlimit:10;" d="M609.867,385.499c0,0-17.015-1.988-20.771-4.746
							s-2.533-6.135-0.26-5.696"/>
						<path style="fill:none;stroke:#263238;stroke-miterlimit:10;" d="M593.435,382.727c0,0-2.723,1.264,0.968,4.034
							c3.692,2.769,16.614,5.069,25.354,4.505c8.74-0.564,13.077-9.412,14.594-13.574c1.517-4.162,3.184-11.525-0.8-16.26
							c-4.245-5.046-17.055-7.897-17.055-7.897l-0.052,7.255c0,0-24.035-3.818-27.563-3.186c-4.544,0.814-6.04,6.324,1.462,8.49
							c7.502,2.166,25.22,4.903,25.22,4.903"/>
					</g>
				</g>
				<path style="fill:none;stroke:#263238;stroke-miterlimit:10;" d="M632.51,390.87c0,0,10.534-5.538,9.059-26.617"/>
			</g>
		</g>
	</g>
</g>
<g id="Character1">
	<g>
		<g>
			<g>
				<path style="fill:#D880A6;" d="M310.496,431.64c1.206-19.653,0.194-54.872-14.823-98.519
					c-23.417-68.064-61.156-99.217-83.77-104.901c-22.614-5.684-41.852-6.131-81.875,28.533
					c-40.023,34.664-63.621,77.064-71.823,106.861c-8.202,29.798,4.26,41.35,4.26,41.35l118.916-41.687l16.863,68.364H310.496z"/>
				<path style="opacity:0.3;" d="M198.245,431.64h112.252c1.206-19.652,0.194-54.872-14.823-98.52
					c-23.417-68.064-61.156-99.217-83.77-104.901c-22.614-5.684-41.852-6.131-81.875,28.533
					c-40.023,34.664-63.621,77.064-71.823,106.861c-8.202,29.798,4.26,41.35,4.26,41.35l118.916-41.687L198.245,431.64z"/>
			</g>
			<g>
				<g>
					<path style="fill:#D880A6;" d="M269.833,431.64c0.029-2.238,0.046-4.485,0.046-6.742c0-111.653-33.842-202.166-75.588-202.166
						s-75.588,90.513-75.588,202.166c0,2.258,0.017,4.504,0.046,6.742H269.833z"/>
					<g style="opacity:0.3;">
						<path d="M269.833,431.64c0.029-2.238,0.046-4.485,0.046-6.742c0-111.653-33.842-202.166-75.588-202.166
							s-75.588,90.513-75.588,202.166c0,2.258,0.017,4.504,0.046,6.742H269.833z"/>
					</g>
				</g>
				<path style="fill:none;stroke:#263238;stroke-miterlimit:10;" d="M132.597,308.059c-8.751,32.992-13.894,73.309-13.894,116.838
					c0,2.258,0.017,4.504,0.046,6.742h151.084c0.029-2.238,0.046-4.485,0.046-6.742c0-42.722-4.955-82.349-13.411-114.995"/>
			</g>
			<g>
				<g>
					<g>
						<path style="fill:#D880A6;" d="M233.896,172.659c0,0,0.905-12.596-0.373-20.419c-1.278-7.823-9.356-16.574-18.283-19.093
							c-8.928-2.519-17.572-0.133-25.083,2.784c-7.511,2.917-17.855-1.458-22.957,10.077c-5.102,11.535-0.425,12.596-5.243,20.684
							c-4.818,8.088-2.834,12.994-1.559,20.153c1.275,7.16-5.288,6.294-3.158,16.279c1.864,8.736,5.283,15.504,21.722,17.626
							c9.86,1.272,39.396-10.702,42.088-17.729C223.741,195.995,233.896,172.659,233.896,172.659z"/>
						<path style="opacity:0.3;" d="M233.896,172.659c0,0,0.905-12.596-0.373-20.419c-1.278-7.823-9.356-16.574-18.283-19.093
							c-8.928-2.519-17.572-0.133-25.083,2.784c-7.511,2.917-17.855-1.458-22.957,10.077c-5.102,11.535-0.425,12.596-5.243,20.684
							c-4.818,8.088-2.834,12.994-1.559,20.153c1.275,7.16-5.288,6.294-3.158,16.279c1.864,8.736,5.283,15.504,21.722,17.626
							c9.86,1.272,39.396-10.702,42.088-17.729C223.741,195.995,233.896,172.659,233.896,172.659z"/>
					</g>
					<g>
						<path style="fill:none;stroke:#263238;stroke-miterlimit:10;" d="M179.74,197.692c0,0-0.709,3.182-5.669,7.16"/>
						<path style="fill:none;stroke:#263238;stroke-miterlimit:10;" d="M178.465,196.366c0,0-5.102,2.254-9.353,3.182"/>
						<path style="fill:none;stroke:#263238;stroke-miterlimit:10;" d="M177.756,168.125c0,0-4.676,0.796-7.227,0"/>
						<path style="fill:none;stroke:#263238;stroke-miterlimit:10;" d="M176.906,169.981c0,0-4.393,2.121-6.377,2.254"/>
					</g>
				</g>
				<path style="fill:#2A2936;" d="M184.846,165.58c-0.352-0.586-3.153-2.543-6.575-3.746c-1.061,4.878-3.063,15.771-1.033,20.715
					c2.659,6.476,3.176,15.514,3.176,15.514l3.612,6.923c4.278,2.327,11.166,8.185,11.166,8.185S185.535,166.73,184.846,165.58z"/>
				<g>
					<g>
						<g>
							<path style="fill:#D880A6;" d="M203.27,139.477h3.463c14.819,0,26.832,11.93,26.832,26.647v2.429
								c0-14.717-12.013-26.647-26.832-26.647l0,0c-14.819,0-26.832,11.93-26.832,26.647v21.235c0,8.236,3.764,15.597,9.674,20.485
								c-7.864-4.646-13.137-13.167-13.137-22.914v-21.235C176.439,151.407,188.452,139.477,203.27,139.477z"/>
							<path style="opacity:0.3;" d="M203.27,139.477h3.463c14.819,0,26.832,11.93,26.832,26.647v2.429
								c0-14.717-12.013-26.647-26.832-26.647l0,0c-14.819,0-26.832,11.93-26.832,26.647v21.235c0,8.236,3.764,15.597,9.674,20.485
								c-7.864-4.646-13.137-13.167-13.137-22.914v-21.235C176.439,151.407,188.452,139.477,203.27,139.477z"/>
						</g>
						<path style="fill:none;stroke:#263238;stroke-miterlimit:10;" d="M189.576,210.273c-7.864-4.646-13.137-13.167-13.137-22.914
							v-21.235c0-14.717,12.013-26.647,26.832-26.647h3.463c14.819,0,26.832,11.93,26.832,26.647v2.429"/>
					</g>
					<path style="fill:none;stroke:#263238;stroke-width:2;stroke-miterlimit:10;" d="M165.655,187.015
						c0,6.346,5.186,11.49,11.584,11.49c6.397,0,11.583-5.144,11.583-11.49c0-6.345-5.186-11.489-11.583-11.489
						C170.841,175.526,165.655,180.67,165.655,187.015z"/>
					<path style="fill:#FFFFFF;stroke:#263238;stroke-miterlimit:10;" d="M216.12,151.365h-14.55
						c-9.673,0-17.587,9.011-17.587,20.024v22.554c0,0.636,0.033,1.263,0.084,1.884c-0.157,0.665-0.249,1.354-0.249,2.066
						c0,0-0.17,13.46-0.175,14.013l-0.15,15.729c-0.028,0.009-0.055,0.019-0.083,0.028l1.992,1.875l19.785,0.585l2.665-3.033
						c-0.064-0.017-0.128-0.04-0.192-0.057c0.031-0.301,0.046-0.607,0.046-0.916v-12.15h8.413c9.673,0,17.587-9.011,17.587-20.024
						v-22.554C233.708,160.375,225.793,151.365,216.12,151.365z"/>
					<g>
						<path style="fill:#263238;" d="M206.733,141.906c-14.819,0-26.832,11.93-26.832,26.647v13.418
							c0.025,0.019,0.047,0.052,0.073,0.066c0,0,4.882,6.267,8.03-4.32c1.96-6.59,1.186-7.823,8.083-7.293
							c6.897,0.529,11.955-6.348,12.415-10.152c0.379-3.132,11.102,10.382,24.891,5.298
							C231.9,152.258,220.536,141.906,206.733,141.906z"/>
					</g>
					<g>
						<g>
							<path style="fill:#263238;" d="M206.362,178.757c0,1.574,1.276,2.851,2.851,2.851c1.575,0,2.851-1.276,2.851-2.851
								c0-1.574-1.276-2.851-2.851-2.851C207.639,175.906,206.362,177.183,206.362,178.757z"/>
							<path style="fill:#263238;" d="M225.98,178.476c0,1.419,1.15,2.57,2.569,2.57c1.419,0,2.569-1.151,2.569-2.57
								c0-1.419-1.15-2.569-2.569-2.569C227.13,175.906,225.98,177.057,225.98,178.476z"/>
						</g>
						<g>
							<polygon style="fill:#D880A6;" points="220.893,188.219 220.897,187.764 220.999,176.881 226.064,187.016 							"/>
						</g>
					</g>
					<g>
						<path style="fill:#FFFFFF;" d="M165.655,187.015c0,6.346,5.186,11.49,11.584,11.49c6.397,0,11.583-5.144,11.583-11.49
							c0-6.345-5.186-11.489-11.583-11.489C170.841,175.526,165.655,180.67,165.655,187.015z"/>
						<g>
							<g>
								<path style="fill:#263238;" d="M184.192,188.533c0.175-2.746-1.123-5.843-3.715-7.028c-1.401-0.641-2.959-0.755-4.477-0.597
									c-0.37,0.038-0.688,0.289-0.688,0.688c0,0.342,0.316,0.727,0.688,0.688c1.259-0.131,2.443-0.091,3.621,0.343
									c0.303,0.112,0.776,0.372,1.126,0.633c-0.095-0.071,0.124,0.102,0.152,0.126c0.077,0.066,0.151,0.135,0.224,0.206
									c0.156,0.152,0.301,0.314,0.436,0.484c-0.093-0.117,0.075,0.103,0.1,0.139c0.054,0.078,0.107,0.157,0.157,0.238
									c0.109,0.173,0.208,0.352,0.299,0.535c0.044,0.09,0.085,0.181,0.127,0.272c0.046,0.1-0.061-0.153,0.004,0.009
									c0.016,0.041,0.033,0.082,0.049,0.124c0.072,0.185,0.135,0.374,0.192,0.564c0.095,0.32,0.17,0.646,0.227,0.976
									c0.012,0.072,0.023,0.143,0.034,0.215c0.032,0.201-0.012-0.133,0.008,0.063c0.014,0.137,0.03,0.273,0.04,0.41
									c0.023,0.302,0.038,0.61,0.019,0.913C182.759,189.417,184.136,189.414,184.192,188.533L184.192,188.533z"/>
							</g>
						</g>
					</g>
				</g>
				<g>
					<path style="fill:#D880A6;" d="M230.306,186.539c-9.829-5.652-14.139,0.526-24.658,3.68c-6.62,1.985-9.918-0.194-11.453-2.082
						c-0.504-0.619-1.493-0.369-1.601,0.422c-0.406,2.968-0.952,8.315-0.803,14.87c0.108,4.762,8.731,8.07,15.917,10.85v-0.314
						h8.413c9.673,0,17.587-9.011,17.587-20.024v-5.335C232.749,187.99,231.636,187.305,230.306,186.539z"/>
					<g style="opacity:0.7;">
						<path style="fill:#FFFFFF;" d="M230.306,186.539c-9.829-5.652-14.139,0.526-24.658,3.68c-6.62,1.985-9.918-0.194-11.453-2.082
							c-0.504-0.619-1.493-0.369-1.601,0.422c-0.406,2.968-0.952,8.315-0.803,14.87c0.108,4.762,8.731,8.07,15.917,10.85v-0.314
							h8.413c9.673,0,17.587-9.011,17.587-20.024v-5.335C232.749,187.99,231.636,187.305,230.306,186.539z"/>
					</g>
					<g>
						<path style="fill:none;stroke:#263238;stroke-miterlimit:10;" d="M230.306,186.539c-9.829-5.652-14.139,0.526-24.658,3.68
							c-6.62,1.985-9.918-0.194-11.453-2.082c-0.504-0.619-1.493-0.369-1.601,0.422c-0.406,2.968-0.952,8.315-0.803,14.87
							c0.108,4.762,8.731,8.07,15.917,10.85v-0.314h8.413c9.673,0,17.587-9.011,17.587-20.024v-5.335
							C232.749,187.99,231.636,187.305,230.306,186.539z"/>
					</g>
					<g>
						<path style="fill:none;stroke:#263238;stroke-width:0.75;stroke-miterlimit:10;" d="M202.181,196.692
							c0,0,4.427,1.35,9.883-1.655c5.456-3.006,18.787-7.012,21.502,1.417"/>
						<path style="fill:none;stroke:#263238;stroke-width:0.75;stroke-miterlimit:10;" d="M204.046,202.547
							c0,0,8.024,1.345,16.324,1.507c9.017,0.176,12.356-3.529,12.356-3.529"/>
						<path style="fill:none;stroke:#263238;stroke-width:0.75;stroke-miterlimit:10;" d="M208.889,207.708
							c0,0,7.689,3.986,20.002,0.057"/>
					</g>
				</g>
				<g>
					<g>
						<path style="fill:#263238;" d="M186.503,180.243c1.75,2.24,3.5,4.48,5.25,6.72c0.247,0.317,0.495,0.633,0.742,0.949
							c0.208,0.266,0.666,0.218,0.884,0c0.263-0.263,0.208-0.617,0-0.884c-1.75-2.24-3.5-4.48-5.25-6.72
							c-0.247-0.316-0.494-0.633-0.742-0.949c-0.208-0.266-0.666-0.218-0.884,0C186.24,179.622,186.294,179.976,186.503,180.243
							L186.503,180.243z"/>
					</g>
				</g>
				<g>
					<g>
						<path style="fill:#263238;" d="M184.468,201.449c2.325-2.522,4.65-5.043,6.976-7.565c0.327-0.355,0.655-0.71,0.982-1.065
							c0.545-0.591-0.337-1.477-0.884-0.884c-2.325,2.522-4.65,5.043-6.976,7.565c-0.327,0.355-0.655,0.71-0.982,1.065
							C183.039,201.156,183.921,202.042,184.468,201.449L184.468,201.449z"/>
					</g>
				</g>
				<g>
					<g>
						<path style="fill:#D880A6;" d="M209.717,233.126h-27.821c-2.106,0-3.813-1.707-3.813-3.813v-4.657
							c0-2.106,1.707-3.813,3.813-3.813h27.821c2.106,0,3.813,1.707,3.813,3.813v4.657
							C213.529,231.419,211.823,233.126,209.717,233.126z"/>
						<path style="opacity:0.3;" d="M209.717,233.126h-27.821c-2.106,0-3.813-1.707-3.813-3.813v-4.657
							c0-2.106,1.707-3.813,3.813-3.813h27.821c2.106,0,3.813,1.707,3.813,3.813v4.657
							C213.529,231.419,211.823,233.126,209.717,233.126z"/>
					</g>
					<path style="fill:none;stroke:#263238;stroke-miterlimit:10;" d="M209.717,233.126h-27.821c-2.106,0-3.813-1.707-3.813-3.813
						v-4.657c0-2.106,1.707-3.813,3.813-3.813h27.821c2.106,0,3.813,1.707,3.813,3.813v4.657
						C213.529,231.419,211.823,233.126,209.717,233.126z"/>
				</g>
			</g>
		</g>
		<g>
			<g>
				<path style="fill:#263238;" d="M223.196,391.429l-62.522,15.059c-5.607,1.35-11.247-2.1-12.598-7.707l-21.515-89.324
					c-1.35-5.607,2.1-11.247,7.707-12.598l62.522-15.059c5.607-1.35,11.247,2.1,12.598,7.707l21.515,89.324
					C232.253,384.438,228.803,390.078,223.196,391.429z"/>
				<g>
					<path style="fill:#4D5A64;" d="M183.197,294.295l-31.136,7.499c-2.713,0.653-5.441-1.016-6.095-3.729l-0.473-1.966
						c-0.653-2.713,1.016-5.441,3.729-6.095l31.136-7.499c2.713-0.653,5.441,1.016,6.095,3.729l0.473,1.965
						C187.579,290.913,185.91,293.642,183.197,294.295z"/>
					<path style="fill:#4D5A64;" d="M162.761,277.834c-5.029,1.211-8.124,6.27-6.913,11.3c1.211,5.029,6.27,8.124,11.3,6.913
						c5.029-1.211,8.124-6.27,6.913-11.3C172.85,279.718,167.79,276.623,162.761,277.834z M166.152,291.913
						c-2.746,0.661-5.509-1.029-6.17-3.775c-0.661-2.746,1.029-5.509,3.775-6.17c2.746-0.661,5.509,1.029,6.17,3.775
						C170.588,288.489,168.898,291.251,166.152,291.913z"/>
				</g>
			</g>
			<g>
				<g>
					<path style="fill:#D880A6;" d="M165.491,359.102l-3.42-5.024l21.43-17.493l19.809-15.946c0,0,4.29-3.878,7.281-3.111
						c2.991,0.767,1.571,3.102,1.53,3.697c-0.042,0.594-4.939,7.515-4.939,7.515l-1.903,2.561l10.972-7.494l1.183-0.899
						l-0.946-4.172c0,0,3.739-0.829,6.026,0.129c2.287,0.959,3.545,2.883,3.116,4.535c-0.429,1.651-1.934,3.916-1.934,3.916
						s1.553-1.388,3.181-0.112c1.628,1.275-0.315,5.742-0.315,5.742l-1.657,2.502c0,0,0.932-1.476,2.214-0.712
						c1.282,0.764,1.822,2.989,1.15,4.262c-0.671,1.273-1.819,2.86-1.819,2.86s1.434-0.485,1.77,1.129
						c0.336,1.614,0.629,2.022-1.021,5.365c-1.649,3.343-6.522,6.919-8.037,8.577c-1.515,1.658-12.876,8.786-12.876,8.786
						l-21.172,12.309l-3.432,1.811C181.685,379.833,166.734,362.157,165.491,359.102z"/>
					<path style="opacity:0.7;fill:#FFFFFF;" d="M165.491,359.102l-3.42-5.024l21.43-17.493l19.809-15.946
						c0,0,4.29-3.878,7.281-3.111c2.991,0.767,1.571,3.102,1.53,3.697c-0.042,0.594-4.939,7.515-4.939,7.515l-1.903,2.561
						l10.972-7.494l1.183-0.899l-0.946-4.172c0,0,3.739-0.829,6.026,0.129c2.287,0.959,3.545,2.883,3.116,4.535
						c-0.429,1.651-1.934,3.916-1.934,3.916s1.553-1.388,3.181-0.112c1.628,1.275-0.315,5.742-0.315,5.742l-1.657,2.502
						c0,0,0.932-1.476,2.214-0.712c1.282,0.764,1.822,2.989,1.15,4.262c-0.671,1.273-1.819,2.86-1.819,2.86s1.434-0.485,1.77,1.129
						c0.336,1.614,0.629,2.022-1.021,5.365c-1.649,3.343-6.522,6.919-8.037,8.577c-1.515,1.658-12.876,8.786-12.876,8.786
						l-21.172,12.309l-3.432,1.811C181.685,379.833,166.734,362.157,165.491,359.102z"/>
					<path style="fill:none;stroke:#263238;stroke-miterlimit:10;" d="M216.487,318.98c0,0,5.397-1.764,8.419,1.347
						c3.021,3.11-1.927,8.309-4.646,10.187c-2.718,1.878-11.55,8.484-11.55,8.484"/>
					<path style="fill:none;stroke:#263238;stroke-miterlimit:10;" d="M213.625,344.155c0,0,8.891-5.65,11.28-8.708
						c5.652-7.231,1.264-10.676-1.553-7.727"/>
					<path style="fill:none;stroke:#263238;stroke-miterlimit:10;" d="M225.5,334.568c0,0,2.462-0.52,3.032,2.02
						c0.57,2.541-1.446,5.351-10.261,13.642"/>
					<path style="fill:none;stroke:#263238;stroke-miterlimit:10;" d="M226.669,341.583c0,0,5.361,0.525-1.763,10.008
						c-6.308,8.397-40.759,27.129-42.936,28.061s-19.9-25.574-19.9-25.574s32.592-26.671,39.838-32.376
						c7.246-5.705,9.995-4.936,10.494-1.865c0.421,2.589-8.344,12.432-8.344,12.432l14.918-10.441"/>
				</g>
				<g>
					<g>
						<path style="fill:#D880A6;" d="M64.967,407.807c0,0-8.509-9.007-7.162-15.743c1.347-6.737,0.311-12.852,10.468-20.107
							c10.157-7.255,16.69-8.469,34.657-12.571c17.968-4.102,48.267-11.02,48.267-11.02s10.144-4.348,15.678-0.173
							s11.892,14.835,13.377,19.883c1.485,5.047,5.16,10.082,3.526,15.148c-1.635,5.066-0.441,3.935-4.584,8.383
							c-4.142,4.448-22.979,15.745-34.691,20.046s-30.2,9.303-45.046,8.512C84.61,419.374,72.751,416.192,64.967,407.807z"/>
						<path style="opacity:0.3;" d="M64.967,407.807c0,0-8.509-9.007-7.162-15.743c1.347-6.737,0.311-12.852,10.468-20.107
							c10.157-7.255,16.69-8.469,34.657-12.571c17.968-4.102,48.267-11.02,48.267-11.02s10.144-4.348,15.678-0.173
							s11.892,14.835,13.377,19.883c1.485,5.047,5.16,10.082,3.526,15.148c-1.635,5.066-0.441,3.935-4.584,8.383
							c-4.142,4.448-22.979,15.745-34.691,20.046s-30.2,9.303-45.046,8.512C84.61,419.374,72.751,416.192,64.967,407.807z"/>
					</g>
					<g>
						<path style="fill:none;stroke:#263238;stroke-miterlimit:10;" d="M85.892,363.276l72.455-16.543
							c0,0,8.226-3.797,15.976,10.299c7.75,14.096,13.162,22.771,7.036,32.01c-6.126,9.24-41.143,29.107-75.042,30.989
							c-33.899,1.882-46.336-14.494-49.445-26.102"/>
						<path style="fill:none;stroke:#263238;stroke-miterlimit:10;" d="M153.22,358.218c0,0,10.992-4.77,19.395-4.081"/>
						<path style="fill:none;stroke:#263238;stroke-miterlimit:10;" d="M173.84,356.143c0,0-5.359,5.517-12.2,8.834"/>
						<path style="fill:none;stroke:#263238;stroke-miterlimit:10;" d="M165.076,377.676c0,0,9.602-7.096,16.305-7.185"/>
						<path style="fill:none;stroke:#263238;stroke-miterlimit:10;" d="M174.404,382.268c0,0,5.173-2.377,8.649-7.381"/>
					</g>
				</g>
			</g>
		</g>
	</g>
</g>
<g id="Speech_Bubble">
	<g>
		<path style="fill:#FFFFFF;stroke:#263238;stroke-miterlimit:10;" d="M312.988,134.184c4.031-5.619,6.412-12.502,6.412-19.945
			c0-18.922-15.339-34.261-34.261-34.261c-18.922,0-34.261,15.339-34.261,34.261s15.339,34.261,34.261,34.261
			c7.121,0,13.733-2.174,19.212-5.892l12.237,5.109L312.988,134.184z"/>
		<g>
			<g>
				<g>
					<path style="fill:#D880A6;" d="M299.702,109.061c-0.628-3.576-3.842-6.779-7.469-6.598c-2.142,0.107-4.122,1.329-5.507,2.967
						c-0.606,0.716-1.019,1.237-1.345,1.769c-0.273-0.56-0.633-1.119-1.167-1.891c-1.219-1.765-3.071-3.174-5.193-3.488
						c-3.592-0.533-7.102,2.342-8.075,5.841c-0.973,3.498,0.176,7.313,2.217,10.317c2.041,3.003,5.491,6.89,11.572,8.598
						c4.096-0.736,9.432-4.671,11.756-7.462C298.815,116.323,300.33,112.638,299.702,109.061z"/>
				</g>
			</g>
		</g>
	</g>
</g>
<g id="Desk">
	<g>
		<g>
			<path style="fill:#263238;" d="M702.334,431.015c-5.888,0-11.776,0-17.665,0c-15.881,0-31.762,0-47.642,0
				c-23.545,0-47.089,0-70.634,0c-28.725,0-57.451,0-86.176,0c-31.353,0-62.705,0-94.058,0c-31.863,0-63.726,0-95.589,0
				c-29.507,0-59.014,0-88.521,0c-25.024,0-50.049,0-75.073,0c-17.992,0-35.983,0-53.975,0c-8.498,0-17.015-0.169-25.512,0
				c-0.371,0.007-0.744,0-1.115,0c-0.804,0-0.806,1.25,0,1.25c5.888,0,11.777,0,17.665,0c15.881,0,31.761,0,47.642,0
				c23.545,0,47.089,0,70.634,0c28.725,0,57.451,0,86.176,0c31.353,0,62.705,0,94.058,0c31.863,0,63.726,0,95.589,0
				c29.507,0,59.014,0,88.52,0c25.024,0,50.049,0,75.073,0c17.992,0,35.983,0,53.975,0c8.498,0,17.015,0.169,25.512,0
				c0.372-0.007,0.744,0,1.115,0C703.138,432.265,703.139,431.015,702.334,431.015L702.334,431.015z"/>
		</g>
	</g>
</g>
</svg>
