<?xml version="1.0" encoding="UTF-8" standalone="no"?>
<svg
   id="Capa_1"
   data-name="Capa 1"
   viewBox="0 0 662.68 170.3"
   version="1.1"
   sodipodi:docname="99d8daf5f985a4e30ad3e0e6fc78eae2.svg"
   width="662.67999"
   height="170.3"
   xmlns:inkscape="http://www.inkscape.org/namespaces/inkscape"
   xmlns:sodipodi="http://sodipodi.sourceforge.net/DTD/sodipodi-0.dtd"
   xmlns="http://www.w3.org/2000/svg"
   xmlns:svg="http://www.w3.org/2000/svg">
  <sodipodi:namedview
     id="namedview51"
     pagecolor="#ffffff"
     bordercolor="#666666"
     borderopacity="1.0"
     inkscape:pageshadow="2"
     inkscape:pageopacity="0.0"
     inkscape:pagecheckerboard="0" />
  <defs
     id="defs4">
    <style
       id="style2">.cls-1{fill:none;}.cls-2{isolation:isolate;}.cls-3{fill:#fff;}</style>
  </defs>
  <rect
     class="cls-1"
     y="26.299999"
     width="569.88"
     height="144"
     id="rect6"
     x="0" />
  <g
     class="cls-2"
     id="g22">
    <path
       class="cls-3"
       d="m 120.81,348.24 a 17.71,17.71 0 0 1 -8.56,-12.51 l 14.06,-4 c 7,20.75 42.29,0.76 1.53,-7.27 -17.21,-3.67 -19.35,-26.74 -2.67,-32.58 12.94,-4.51 33.32,-2.18 36,14 l -13.07,2.93 c -0.8,-10.19 -24.42,-10.26 -17.55,0.85 8.91,5.6 23.53,4.36 29.91,14.15 13.72,25.57 -22.36,35.29 -39.65,24.43 z"
       transform="translate(-108.8,-235.02)"
       id="path8" />
    <path
       class="cls-3"
       d="m 234.89,291.08 v 60.24 h -16 l -0.41,-7.85 c -16,21.47 -50.42,3.29 -47.93,-22.15 -2.34,-25 30.86,-43.2 47.46,-23 v -7.27 z"
       transform="translate(-108.8,-235.02)"
       id="path10" />
    <path
       class="cls-3"
       d="M 211.51,336.55 C 228.92,325.66 215,295 195.28,306 c -17.41,10.88 -3.57,41.73 16.23,30.55 z"
       transform="translate(-108.8,-235.02)"
       id="path12" />
    <rect
       class="cls-3"
       x="141.91"
       y="26.299999"
       width="16.99"
       height="90"
       id="rect14" />
    <path
       class="cls-3"
       d="m 340.42,291.08 v 60.24 h -15.94 l -0.47,-7.27 c -7.47,10.36 -27.32,11.05 -35.8,3 -10.32,-7.6 -4.28,-44.95 -5.8,-56 h 17 V 328 c -0.13,7.13 4.14,10.85 10.78,10.9 8.7,-0.14 13.43,-5.21 13.36,-14.59 v -33.23 z"
       transform="translate(-108.8,-235.02)"
       id="path16" />
    <path
       class="cls-3"
       d="m 416.47,261.32 v 90 h -16 l -0.42,-7.74 c -16,21.37 -50.32,3.25 -47.92,-22.26 -2.42,-25.05 30.88,-43.21 47.46,-23 v -37 z"
       transform="translate(-108.8,-235.02)"
       id="path18" />
    <path
       class="cls-3"
       d="m 393.15,336.61 c 17.35,-10.92 3.56,-41.75 -16.29,-30.61 -17.43,11 -3.57,41.63 16.29,30.61 z"
       transform="translate(-108.8,-235.02)"
       id="path20" />
  </g>
  <rect
     class="cls-1"
     x="407.45999"
     width="101.15"
     height="137.67"
     id="rect24"
     y="0" />
  <g
     class="cls-2"
     id="g30">
    <path
       class="cls-3"
       d="m 574.09,267.39 c 19.23,10.61 19.23,44.66 0,55.26 -10,5.82 -26.29,5.48 -33.11,-4.78 v 36.45 h -16.81 v -89.53 h 16 l 0.41,8 C 547,262 564,261.45 574.09,267.39 Z"
       transform="translate(-108.8,-235.02)"
       id="path26" />
    <path
       class="cls-3"
       d="m 563.72,310.34 c 17.45,-10.82 3.58,-41.77 -16.23,-30.55 -17.4,10.93 -3.49,41.42 16.23,30.55 z"
       transform="translate(-108.8,-235.02)"
       id="path28" />
  </g>
  <rect
     class="cls-1"
     x="475.48001"
     y="32.380001"
     width="187.2"
     height="108.07"
     id="rect32" />
  <g
     class="cls-2"
     id="g42">
    <path
       class="cls-3"
       d="m 649.49,330.45 h -44.65 c -0.45,15.37 22.54,20.74 28.42,6.68 l 15.47,2.28 c -5.3,18.73 -29.94,23.49 -45.35,15.44 -15.71,-7.34 -19,-30.26 -11.16,-44.38 17.25,-26.85 62.39,-15.91 57.27,19.98 z"
       transform="translate(-108.8,-235.02)"
       id="path34" />
    <path
       class="cls-3"
       d="m 610.58,310.44 a 13.23,13.23 0 0 0 -5,8 h 27.3 c -1.09,-10.72 -14.88,-13.23 -22.3,-8 z"
       transform="translate(-108.8,-235.02)"
       id="path36" />
    <path
       class="cls-3"
       d="m 682.39,301.62 a 25.21,25.21 0 0 1 15.15,-5.16 v 15.06 c -11.49,-0.51 -19.53,4.29 -18.87,16.53 v 29.35 h -17 v -60.23 h 16.17 v 9.49 a 17.23,17.23 0 0 1 4.55,-5.04 z"
       transform="translate(-108.8,-235.02)"
       id="path38" />
    <path
       class="cls-3"
       d="m 721,352.51 c -8,-6.65 -3.81,-33 -4.8,-42.39 h -11.81 v -12.95 c 12.83,0.81 16,-6.33 15.59,-18.52 h 13.36 v 18.52 h 12.42 v 12.95 h -12.42 c 0.69,4.41 -1.78,29.46 1.81,32.52 2,2.62 7.58,1.82 10.61,1.93 v 12.83 c -7.5,-0.04 -19.84,1.15 -24.76,-4.89 z"
       transform="translate(-108.8,-235.02)"
       id="path40" />
  </g>
  <rect
     class="cls-1"
     x="318.16"
     y="26.299999"
     width="101.15"
     height="137.67"
     id="rect44" />
  <g
     class="cls-2"
     id="g48">
    <polygon
       class="cls-3"
       points="342.94,31.63 364.1,59.4 385.19,31.63 406.52,31.63 374.47,72.12 407.45,116.3 385.07,116.3 364.1,86.36 343,116.3 320.62,116.3 353.67,72.12 321.56,31.63 "
       id="polygon46" />
  </g>
</svg>
