<?xml version="1.0" encoding="utf-8"?>
<!-- Generator: Adobe Illustrator 25.0.0, SVG Export Plug-In . SVG Version: 6.00 Build 0)  -->
<svg version="1.1" id="Capa_1" xmlns="http://www.w3.org/2000/svg" xmlns:xlink="http://www.w3.org/1999/xlink" x="0px" y="0px"
	 viewBox="0 0 841.89 595.28" style="enable-background:new 0 0 841.89 595.28;" xml:space="preserve">
<style type="text/css">
	.st0{fill:#0777BD;}
	.st1{fill:none;stroke:#632F88;stroke-width:7;stroke-miterlimit:10;}
	.st2{fill:#632F88;}
	.st3{fill:#FFFFFF;}
	.st4{fill:none;stroke:#0777BD;stroke-width:8;stroke-miterlimit:10;}
	.st5{fill:#82368C;}
</style>
<rect x="-1.92" y="-1.35" class="st2" width="843.81" height="607.34"/>
<path class="st3" d="M66.83,344.33c-7.05-2.31-13.15-5.54-18.29-9.71l11.31-15.83c8.25,6.48,17.87,9.71,28.87,9.71
	c5.5,0,9.87-0.93,13.11-2.79c3.24-1.86,4.86-4.39,4.86-7.58c0-3.01-1.51-5.37-4.52-7.05c-3.02-1.68-7.81-2.88-14.37-3.59
	c-12.69-1.42-21.98-4.39-27.87-8.92c-5.9-4.52-8.85-11-8.85-19.42c0-5.68,1.6-10.69,4.79-15.03c3.19-4.35,7.67-7.72,13.44-10.11
	c5.77-2.4,12.42-3.59,19.96-3.59c6.47,0,12.79,0.93,18.96,2.79c6.16,1.86,11.6,4.48,16.3,7.85l-10.24,15.3
	c-7.27-5.06-15.3-7.58-24.08-7.58c-5.41,0-9.74,0.89-12.97,2.66c-3.24,1.78-4.86,4.17-4.86,7.18c0,2.93,1.4,5.19,4.19,6.79
	c2.79,1.6,7.47,2.79,14.04,3.59c12.59,1.42,22,4.55,28.21,9.38c6.21,4.84,9.31,11.47,9.31,19.89c0,5.85-1.64,11.02-4.92,15.5
	c-3.28,4.48-7.9,7.94-13.84,10.38c-5.94,2.44-12.77,3.66-20.49,3.66C81.22,347.79,73.88,346.63,66.83,344.33z"/>
<path class="st3" d="M208.72,279.93v65.72h-18.09l-1.33-7.85c-5.59,6.12-12.86,9.18-21.82,9.18c-6.12,0-11.55-1.44-16.3-4.32
	c-4.75-2.88-8.45-6.92-11.11-12.11c-2.66-5.19-3.99-11.11-3.99-17.76s1.33-12.57,3.99-17.76c2.66-5.19,6.36-9.22,11.11-12.11
	c4.74-2.88,10.18-4.32,16.3-4.32c4.43,0,8.51,0.78,12.24,2.33c3.73,1.55,6.92,3.79,9.58,6.72l1.33-7.72H208.72z M183.71,324.84
	c2.93-3.06,4.39-7.07,4.39-12.04s-1.46-8.98-4.39-12.04c-2.93-3.06-6.7-4.59-11.31-4.59c-4.61,0-8.36,1.55-11.24,4.66
	c-2.88,3.11-4.32,7.1-4.32,11.98s1.44,8.87,4.32,11.97c2.88,3.11,6.63,4.66,11.24,4.66C177.01,329.43,180.78,327.9,183.71,324.84z"
	/>
<path class="st3" d="M224.42,252.52h20.89v93.13h-20.89V252.52z"/>
<path class="st3" d="M327,279.93v65.72H308.9l-1.33-7.58c-2.48,2.93-5.52,5.17-9.11,6.72c-3.59,1.55-7.52,2.33-11.77,2.33
	c-8.07,0-14.5-2.66-19.29-7.98c-4.79-5.32-7.18-12.68-7.18-22.09v-37.12h20.89v35.92c0,4.26,1.04,7.58,3.13,9.98
	c2.08,2.39,4.94,3.59,8.58,3.59c3.99,0,7.21-1.4,9.65-4.19c2.44-2.79,3.66-6.41,3.66-10.84v-34.46H327z"/>
<path class="st3" d="M411.61,252.52v93.13h-18.09l-1.33-7.85c-5.59,6.12-12.86,9.18-21.82,9.18c-6.12,0-11.55-1.44-16.3-4.32
	c-4.75-2.88-8.45-6.92-11.11-12.11c-2.66-5.19-3.99-11.11-3.99-17.76s1.33-12.57,3.99-17.76c2.66-5.19,6.36-9.22,11.11-12.11
	c4.74-2.88,10.18-4.32,16.3-4.32c8.07,0,14.86,2.53,20.36,7.59v-33.66H411.61z M386.6,324.84c2.93-3.06,4.39-7.07,4.39-12.04
	s-1.46-8.98-4.39-12.04c-2.93-3.06-6.7-4.59-11.31-4.59c-4.61,0-8.36,1.55-11.24,4.66c-2.88,3.11-4.32,7.1-4.32,11.98
	s1.44,8.87,4.32,11.97c2.88,3.11,6.63,4.66,11.24,4.66C379.9,329.43,383.67,327.9,386.6,324.84z"/>
<path class="st3" d="M581.58,254.79c4.79,2.88,8.51,6.92,11.18,12.11c2.66,5.19,3.99,11.11,3.99,17.76c0,6.65-1.33,12.57-3.99,17.76
	c-2.66,5.19-6.39,9.22-11.18,12.11c-4.79,2.88-10.24,4.32-16.36,4.32c-8.16,0-14.95-2.57-20.36-7.72v34.86h-20.89v-94.2h18.09
	l1.33,7.72c5.5-6.03,12.77-9.05,21.82-9.05C571.33,250.47,576.79,251.91,581.58,254.79z M571.6,296.7
	c2.93-3.06,4.39-7.07,4.39-12.04c0-4.97-1.46-8.98-4.39-12.04c-2.93-3.06-6.7-4.59-11.31-4.59c-4.61,0-8.36,1.55-11.24,4.66
	c-2.88,3.11-4.32,7.1-4.32,11.98c0,4.88,1.44,8.87,4.32,11.97c2.88,3.11,6.63,4.66,11.24,4.66
	C564.9,301.29,568.67,299.76,571.6,296.7z"/>
<path class="st3" d="M655.76,284.85c5.23,2.71,9.25,6.52,12.04,11.44s4.19,10.67,4.19,17.23c0,2.13-0.22,4.75-0.66,7.85h-48.3
	c0.62,3.37,2.44,6.1,5.45,8.18c3.01,2.09,6.87,3.13,11.58,3.13c3.28,0,6.47-0.49,9.58-1.46c3.11-0.97,5.76-2.35,7.98-4.13
	l10.91,11.71c-3.73,3.46-8.14,6.12-13.24,7.98c-5.1,1.86-10.53,2.8-16.3,2.8c-7.63,0-14.24-1.4-19.82-4.19
	c-5.59-2.79-9.89-6.76-12.91-11.91c-3.02-5.14-4.52-11.22-4.52-18.23c0-6.74,1.48-12.73,4.46-17.96c2.97-5.23,7.12-9.29,12.44-12.17
	c5.32-2.88,11.49-4.32,18.49-4.32C644.32,280.79,650.53,282.14,655.76,284.85z M627.62,300.48c-2.62,2.13-4.1,5.1-4.46,8.92h29
	c-0.27-3.81-1.66-6.79-4.19-8.92c-2.53-2.13-5.92-3.19-10.18-3.19C633.63,297.29,630.24,298.35,627.62,300.48z"/>
<path class="st3" d="M727.22,284.08c3.01,1.11,5.63,2.73,7.85,4.86l-8.78,15.3c-1.86-1.15-3.59-1.99-5.19-2.53
	c-1.6-0.53-3.28-0.8-5.06-0.8c-4.44,0-7.94,1.42-10.51,4.26c-2.57,2.84-3.86,7.01-3.86,12.51v31.93h-20.89v-65.72h18.23l1.6,8.25
	c4.26-6.47,10.11-9.71,17.56-9.71C721.18,282.42,724.2,282.97,727.22,284.08z"/>
<path class="st3" d="M791.43,347.08c-5.15,2.57-10.96,3.86-17.43,3.86c-7.18,0-12.86-2.02-17.03-6.05
	c-4.17-4.03-6.25-10.53-6.25-19.49v-24.88h-11.18v-16.63h11.18v-16.36l20.76-2.26v18.63h16.36v16.63h-16.36v24.88
	c0,2.66,0.66,4.64,2,5.92c1.33,1.29,3.15,1.93,5.45,1.93c2.57,0,5.1-0.62,7.58-1.86L791.43,347.08z"/>
<g>
	<g>
		<g>
			<g>
				<path class="st0" d="M391.06,224.79c0.54-0.93,2.89-0.51,3.8-0.48c6.32,0.23,12.47,2.23,18.19,4.83
					c11.76,5.35,22.22,13.25,31.54,22.19c8.6,8.24,16.4,17.56,21.25,28.44c1.41,3.15,2.54,6.45,3.36,9.83
					c2.01,8.26,2.1,16.95-0.52,24.99c-4.37,13.44-15.56,23.51-27.3,31.37c-10.76,7.2-23.38,13.32-36.18,11.42
					c20.72-7.75,34.86-28.98,36.91-51.01c2.05-22.03-6.89-44.24-21.43-60.92c-5.56-6.38-12.02-12.12-19.64-15.82"/>
			</g>
		</g>
		<g>
			<g>
				<path class="st0" d="M545.18,366.1c-0.54,0.93-2.89,0.51-3.8,0.48c-6.32-0.23-12.47-2.23-18.19-4.83
					c-11.76-5.35-22.22-13.25-31.54-22.19c-8.6-8.24-16.4-17.56-21.25-28.44c-1.41-3.15-2.54-6.45-3.36-9.83
					c-2.01-8.26-2.1-16.95,0.52-24.99c4.37-13.44,15.56-23.51,27.3-31.37c10.76-7.2,23.38-13.32,36.18-11.42
					c-20.72,7.75-34.86,28.98-36.91,51.01s6.89,44.24,21.43,60.92c5.56,6.38,12.02,12.12,19.64,15.82"/>
			</g>
		</g>
		<g>
			<circle class="st0" cx="467.79" cy="224.19" r="20.24"/>
		</g>
	</g>
</g>
</svg>
