<svg id="Capa_1" data-name="Capa 1" xmlns="http://www.w3.org/2000/svg" viewBox="0 0 662.68 170.3"><defs><style>.cls-1{fill:none;}.cls-2{isolation:isolate;}.cls-3{fill:#fff;}</style></defs><rect class="cls-1" y="26.3" width="569.88" height="144"/><g class="cls-2"><path class="cls-3" d="M120.81,348.24a17.71,17.71,0,0,1-8.56-12.51l14.06-4c7,20.75,42.29.76,1.53-7.27-17.21-3.67-19.35-26.74-2.67-32.58,12.94-4.51,33.32-2.18,36,14l-13.07,2.93c-.8-10.19-24.42-10.26-17.55.85,8.91,5.6,23.53,4.36,29.91,14.15C174.18,349.38,138.1,359.1,120.81,348.24Z" transform="translate(-108.8 -235.02)"/><path class="cls-3" d="M234.89,291.08v60.24h-16l-.41-7.85c-16,21.47-50.42,3.29-47.93-22.15-2.34-25,30.86-43.2,47.46-23v-7.27Z" transform="translate(-108.8 -235.02)"/><path class="cls-3" d="M211.51,336.55C228.92,325.66,215,295,195.28,306,177.87,316.88,191.71,347.73,211.51,336.55Z" transform="translate(-108.8 -235.02)"/><rect class="cls-3" x="141.91" y="26.3" width="16.99" height="90"/><path class="cls-3" d="M340.42,291.08v60.24H324.48l-.47-7.27c-7.47,10.36-27.32,11.05-35.8,3-10.32-7.6-4.28-44.95-5.8-56h17V328c-.13,7.13,4.14,10.85,10.78,10.9,8.7-.14,13.43-5.21,13.36-14.59V291.08Z" transform="translate(-108.8 -235.02)"/><path class="cls-3" d="M416.47,261.32v90h-16l-.42-7.74c-16,21.37-50.32,3.25-47.92-22.26-2.42-25.05,30.88-43.21,47.46-23l0-37Z" transform="translate(-108.8 -235.02)"/><path class="cls-3" d="M393.15,336.61c17.35-10.92,3.56-41.75-16.29-30.61C359.43,317,373.29,347.63,393.15,336.61Z" transform="translate(-108.8 -235.02)"/></g><rect class="cls-1" x="407.46" width="101.15" height="137.67"/><g class="cls-2"><path class="cls-3" d="M574.09,267.39c19.23,10.61,19.23,44.66,0,55.26-10,5.82-26.29,5.48-33.11-4.78v36.45H524.17V264.79h16l.41,8C547,262,564,261.45,574.09,267.39Z" transform="translate(-108.8 -235.02)"/><path class="cls-3" d="M563.72,310.34c17.45-10.82,3.58-41.77-16.23-30.55C530.09,290.72,544,321.21,563.72,310.34Z" transform="translate(-108.8 -235.02)"/></g><rect class="cls-1" x="475.48" y="32.38" width="187.2" height="108.07"/><g class="cls-2"><path class="cls-3" d="M649.49,330.45H604.84c-.45,15.37,22.54,20.74,28.42,6.68l15.47,2.28c-5.3,18.73-29.94,23.49-45.35,15.44-15.71-7.34-19-30.26-11.16-44.38C609.47,283.62,654.61,294.56,649.49,330.45Z" transform="translate(-108.8 -235.02)"/><path class="cls-3" d="M610.58,310.44a13.23,13.23,0,0,0-5,8h27.3C631.79,307.72,618,305.21,610.58,310.44Z" transform="translate(-108.8 -235.02)"/><path class="cls-3" d="M682.39,301.62a25.21,25.21,0,0,1,15.15-5.16v15.06c-11.49-.51-19.53,4.29-18.87,16.53V357.4h-17V297.17h16.17v9.49A17.23,17.23,0,0,1,682.39,301.62Z" transform="translate(-108.8 -235.02)"/><path class="cls-3" d="M721,352.51c-8-6.65-3.81-33-4.8-42.39H704.39V297.17c12.83.81,16-6.33,15.59-18.52h13.36v18.52h12.42v12.95H733.34c.69,4.41-1.78,29.46,1.81,32.52,2,2.62,7.58,1.82,10.61,1.93V357.4C738.26,357.36,725.92,358.55,721,352.51Z" transform="translate(-108.8 -235.02)"/></g><rect class="cls-1" x="318.16" y="26.3" width="101.15" height="137.67"/><g class="cls-2"><polygon class="cls-3" points="353.67 72.12 321.56 31.63 342.94 31.63 364.1 59.4 385.19 31.63 406.52 31.63 374.47 72.12 407.45 116.3 385.07 116.3 364.1 86.36 343 116.3 320.62 116.3 353.67 72.12"/></g></svg>